<svg width="334.6549560546875px" height="140.9600036621094px" xmlns="http://www.w3.org/2000/svg" viewBox="82.67252197265626 4.519998168945307 334.6549560546875 140.9600036621094" style="background: rgb(255, 255, 255);" preserveAspectRatio="xMidYMid"><defs><filter id="editing-vr"><feFlood flood-color="#bdc0cc" flood-opacity="0.7" result="c1"></feFlood><feFlood flood-color="#000000" flood-opacity="0.7" result="c3"></feFlood><feComposite operator="in" in="c1" in2="SourceAlpha" result="text-c1"></feComposite><feComposite operator="in" in="c3" in2="SourceAlpha" result="text-c3"></feComposite><feOffset in="text-c1" dx="5" dy="-1" result="text1"></feOffset><feOffset in="text-c3" dx="-5" dy="1" result="text3"></feOffset><feBlend in="SourceGraphic" in2="text1" mode="multiply" result="text4"></feBlend><feBlend in="text4" in2="text3" mode="multiply"></feBlend></filter></defs><g filter="url(#editing-vr)"><g transform="translate(134.71503174304962, 96.68500328063965)"><path d="M32.63-34.69L32.63-34.69L32.63-34.69Q28.56-38.69 23.63-38.69L23.63-38.69L23.63-38.69Q18.94-38.69 14.63-35.13L14.63-35.13L14.63-35.13Q9.19-30.63 7.13-23.50L7.13-23.50L7.13-23.50Q6.38-20.94 6.38-19.25L6.38-19.25L6.38-19.25Q6.38-17.56 6.50-16.63L6.50-16.63L6.50-16.63Q6.50-10.44 10.69-7.13L10.69-7.13L10.69-7.13Q14.63-4.06 20.75-4.06L20.75-4.06L20.75-4.06Q29.13-4.75 36.81-10.50L36.81-10.50L36.81-10.50Q38.94-12.13 41.31-13.63L41.31-13.63L41.31-13.63Q42.19-13.63 43.09-13.38L43.09-13.38L43.09-13.38Q44-13.13 44-11.94L44-11.94L44-11.94Q37.81-6.56 33.56-4.19L33.56-4.19L33.56-4.19Q25.69 0.06 19.31 0.06L19.31 0.06L19.31 0.06Q18.88 0.06 18.50 0.06L18.50 0.06L18.50 0.06Q11.56 0.06 6.63-4.25L6.63-4.25L6.63-4.25Q1.38-8.81 1.38-15.63L1.38-15.63L1.38-15.63Q1.38-20.75 3.22-25.44L3.22-25.44L3.22-25.44Q5.06-30.13 8.28-33.72L8.28-33.72L8.28-33.72Q11.50-37.31 15.91-39.44L15.91-39.44L15.91-39.44Q20.31-41.56 25.38-41.56L25.38-41.56L25.38-41.56Q29.69-41.56 31-40.38L31-40.38L31-40.38Q32.63-38.94 32.63-34.69ZM48.56-11.88L48.56-11.88L48.56-11.88Q48.56-19.25 54.94-23.75L54.94-23.75L54.94-23.75Q60-27.31 67.13-28.06L67.13-28.06L67.13-28.06Q67.50-28.06 68.88-28.06L68.88-28.06L68.88-28.06Q70.25-28.06 72.56-27.25L72.56-27.25L72.56-27.25Q77.69-25.50 79.56-21.06L79.56-21.06L79.56-21.06Q80.31-19.31 80.31-18.09L80.31-18.09L80.31-18.09Q80.31-16.88 80.25-16.38L80.25-16.38L80.25-16.38Q80.25-8.56 74.31-4.06L74.31-4.06L74.31-4.06Q68.81 0.06 60.56 0.06L60.56 0.06L60.56 0.06Q54.63 0.06 51.59-2.69L51.59-2.69L51.59-2.69Q48.56-5.44 48.56-11.88ZM52.88-10.38L52.88-10.38L52.88-10.38Q52.88-6.50 54.94-5.13L54.94-5.13L54.94-5.13Q56.50-4.13 60.19-4.13L60.19-4.13L60.19-4.13Q63.88-4.13 66.69-4.69L66.69-4.69L66.69-4.69Q69.50-5.25 71.69-6.63L71.69-6.63L71.69-6.63Q76.38-9.63 76.38-15.94L76.38-15.94L76.38-15.94Q76.38-19.69 74.38-22.06L74.38-22.06L74.38-22.06Q72.19-24.63 68.63-24.63L68.63-24.63L68.63-24.63Q66.19-24.19 63.72-23.69L63.72-23.69L63.72-23.69Q61.25-23.19 59.06-21.75L59.06-21.75L59.06-21.75Q54.31-18.69 52.88-10.38ZM104.38-16.13L104.38-16.13L104.38-16.13Q111.25-16.13 111.25-12.63L111.25-12.63L111.25-12.63Q111.25-10 107.44-6.50L107.44-6.50L107.44-6.50Q101.75-1.31 92.13 1.81L92.13 1.81L92.13 1.81Q91.69 1.81 91.16 0.94L91.16 0.94L91.16 0.94Q90.63 0.06 90.34-0.41L90.34-0.41L90.34-0.41Q90.06-0.88 89.94-1L89.94-1L89.94-1Q97.13-3.38 101.75-6.75L101.75-6.75L101.75-6.75Q104.88-9 104.88-10.44L104.88-10.44L104.88-10.44Q104.88-11.88 101.19-11.88L101.19-11.88L101.19-11.88Q97.50-11.88 90.38-10.13L90.38-10.13L90.38-10.13Q87.13-10.25 84.75-12.44L84.75-12.44L84.75-12.44Q82.69-14.38 82.69-16.34L82.69-16.34L82.69-16.34Q82.69-18.31 83.81-19.97L83.81-19.97L83.81-19.97Q84.94-21.63 86.81-23.06L86.81-23.06L86.81-23.06Q88.69-24.50 91.19-25.69L91.19-25.69L91.19-25.69Q97.31-28.63 103.88-28.63L103.88-28.63L103.88-28.63Q105.81-28.63 107.63-28.25L107.63-28.25L107.63-28.25Q109.13-28.25 109.38-26.94L109.38-26.94L109.38-26.94Q109.63-25.63 109.63-22.63L109.63-22.63L109.63-22.63Q105.94-24.31 101.31-24.31L101.31-24.31L101.31-24.31Q95.56-24.31 91.81-22L91.81-22L91.81-22Q87.94-19.75 87.81-16.13L87.81-16.13L87.81-16.13Q87.81-14.38 90.38-14.38L90.38-14.38L94.94-14.88L94.94-14.88Q100.81-16.13 104.38-16.13ZM120.31-1L120.31-1L120.31-1Q117.75 0.06 116.91 0.06L116.91 0.06L116.91 0.06Q116.06 0.06 115.75-0.13L115.75-0.13L115.75-0.13Q115.44-0.31 115.06-1L115.06-1L115.06-1Q115.06-3.06 115.22-6.19L115.22-6.19L115.22-6.19Q115.38-9.31 115.50-12.88L115.50-12.88L115.50-12.88Q115.63-16.44 115.63-20.06L115.63-20.06L115.63-20.06Q115.63-23.69 115.25-26.69L115.25-26.69L115.25-26.69Q115.25-28.69 117.94-28.69L117.94-28.69L117.94-28.69Q118.56-28.69 118.91-26.44L118.91-26.44L118.91-26.44Q119.25-24.19 119.41-22.94L119.41-22.94L119.41-22.94Q119.56-21.69 119.69-21.13L119.69-21.13L119.69-21.13Q121.31-24.06 126.13-25.75L126.13-25.75L126.13-25.75Q128.69-26.56 130.94-26.56L130.94-26.56L130.94-26.56Q133.19-26.56 134.91-26.03L134.91-26.03L134.91-26.03Q136.63-25.50 137.84-24.09L137.84-24.09L137.84-24.09Q139.06-22.69 139.06-20.38L139.06-20.38L139.06-20.38Q140.69-23.44 146.38-25.88L146.38-25.88L146.38-25.88Q151.56-28.19 155.69-28.19L155.69-28.19L155.69-28.19Q161.63-28.19 161.50-23.69L161.50-23.69L162.81-0.44L162.81-0.44Q162.81-0.13 161 0L161 0L161 0Q157.50 0.25 157.50-0.63L157.50-0.63L157.50-0.63Q157.44-1.88 157.44-3.13L157.44-3.13L157.75-13.19L157.75-13.19Q157.75-20.25 156.38-24.38L156.38-24.38L156.38-24.38Q152.25-24.06 150.03-23.03L150.03-23.03L150.03-23.03Q147.81-22 146.13-20.47L146.13-20.47L146.13-20.47Q144.44-18.94 143.13-16.38L143.13-16.38L143.13-16.38Q140.19-10.63 140.19-1.13L140.19-1.13L140.19-1.13Q139.81 0.19 137.75 0.19L137.75 0.19L137.75 0.19Q136.38 0.19 135.50-0.28L135.50-0.28L135.50-0.28Q134.63-0.75 134.81-1.13L134.81-1.13L134.81-1.13Q136-7.75 136-11.44L136-11.44L136-11.44Q136-14.38 135.41-17.03L135.41-17.03L135.41-17.03Q134.81-19.69 133.94-23.13L133.94-23.13L133.94-23.13Q124.94-23.13 121.81-15.94L121.81-15.94L121.81-15.94Q120.44-12.75 120.28-9.97L120.28-9.97L120.28-9.97Q120.13-7.19 120.13-5.22L120.13-5.22L120.13-5.22Q120.13-3.25 120.31-1ZM166.50-11.88L166.50-11.88L166.50-11.88Q166.50-19.25 172.88-23.75L172.88-23.75L172.88-23.75Q177.94-27.31 185.06-28.06L185.06-28.06L185.06-28.06Q185.44-28.06 186.81-28.06L186.81-28.06L186.81-28.06Q188.19-28.06 190.50-27.25L190.50-27.25L190.50-27.25Q195.63-25.50 197.50-21.06L197.50-21.06L197.50-21.06Q198.25-19.31 198.25-18.09L198.25-18.09L198.25-18.09Q198.25-16.88 198.19-16.38L198.19-16.38L198.19-16.38Q198.19-8.56 192.25-4.06L192.25-4.06L192.25-4.06Q186.75 0.06 178.50 0.06L178.50 0.06L178.50 0.06Q172.56 0.06 169.53-2.69L169.53-2.69L169.53-2.69Q166.50-5.44 166.50-11.88ZM170.81-10.38L170.81-10.38L170.81-10.38Q170.81-6.50 172.88-5.13L172.88-5.13L172.88-5.13Q174.44-4.13 178.13-4.13L178.13-4.13L178.13-4.13Q181.81-4.13 184.63-4.69L184.63-4.69L184.63-4.69Q187.44-5.25 189.63-6.63L189.63-6.63L189.63-6.63Q194.31-9.63 194.31-15.94L194.31-15.94L194.31-15.94Q194.31-19.69 192.31-22.06L192.31-22.06L192.31-22.06Q190.13-24.63 186.56-24.63L186.56-24.63L186.56-24.63Q184.13-24.19 181.66-23.69L181.66-23.69L181.66-23.69Q179.19-23.19 177-21.75L177-21.75L177-21.75Q172.25-18.69 170.81-10.38ZM222.31-16.13L222.31-16.13L222.31-16.13Q229.19-16.13 229.19-12.63L229.19-12.63L229.19-12.63Q229.19-10 225.38-6.50L225.38-6.50L225.38-6.50Q219.69-1.31 210.06 1.81L210.06 1.81L210.06 1.81Q209.63 1.81 209.09 0.94L209.09 0.94L209.09 0.94Q208.56 0.06 208.28-0.41L208.28-0.41L208.28-0.41Q208-0.88 207.88-1L207.88-1L207.88-1Q215.06-3.38 219.69-6.75L219.69-6.75L219.69-6.75Q222.81-9 222.81-10.44L222.81-10.44L222.81-10.44Q222.81-11.88 219.13-11.88L219.13-11.88L219.13-11.88Q215.44-11.88 208.31-10.13L208.31-10.13L208.31-10.13Q205.06-10.25 202.69-12.44L202.69-12.44L202.69-12.44Q200.63-14.38 200.63-16.34L200.63-16.34L200.63-16.34Q200.63-18.31 201.75-19.97L201.75-19.97L201.75-19.97Q202.88-21.63 204.75-23.06L204.75-23.06L204.75-23.06Q206.63-24.50 209.13-25.69L209.13-25.69L209.13-25.69Q215.25-28.63 221.81-28.63L221.81-28.63L221.81-28.63Q223.75-28.63 225.56-28.25L225.56-28.25L225.56-28.25Q227.06-28.25 227.31-26.94L227.31-26.94L227.31-26.94Q227.56-25.63 227.56-22.63L227.56-22.63L227.56-22.63Q223.88-24.31 219.25-24.31L219.25-24.31L219.25-24.31Q213.50-24.31 209.75-22L209.75-22L209.75-22Q205.88-19.75 205.75-16.13L205.75-16.13L205.75-16.13Q205.75-14.38 208.31-14.38L208.31-14.38L212.88-14.88L212.88-14.88Q218.75-16.13 222.31-16.13Z" fill="#689cc5"></path></g></g><style>text {
  font-size: 64px;
  font-family: Arial Black;
  dominant-baseline: central;
  text-anchor: middle;
}</style></svg>