<?xml version="1.0" encoding="UTF-8" standalone="no"?>
<!-- Created with Inkscape (http://www.inkscape.org/) -->

<svg
   version="1.1"
   id="svg2"
   width="5333.3335"
   height="5333.3335"
   viewBox="0 0 5333.3335 5333.3335"
   sodipodi:docname="33834556_6700_9_01.eps"
   xmlns:inkscape="http://www.inkscape.org/namespaces/inkscape"
   xmlns:sodipodi="http://sodipodi.sourceforge.net/DTD/sodipodi-0.dtd"
   xmlns="http://www.w3.org/2000/svg"
   xmlns:svg="http://www.w3.org/2000/svg">
  <defs
     id="defs6" />
  <sodipodi:namedview
     id="namedview4"
     pagecolor="#ffffff"
     bordercolor="#000000"
     borderopacity="0.25"
     inkscape:showpageshadow="2"
     inkscape:pageopacity="0.0"
     inkscape:pagecheckerboard="0"
     inkscape:deskcolor="#d1d1d1" />
  <g
     id="g8"
     inkscape:groupmode="layer"
     inkscape:label="ink_ext_XXXXXX"
     transform="matrix(1.3333333,0,0,-1.3333333,0,5333.3333)">
    <g
       id="g10"
       transform="scale(0.1)">
      <path
         d="M 0,0 H 40000 V 40000 H 0 Z"
         style="fill:#ffffff;fill-opacity:1;fill-rule:nonzero;stroke:none"
         id="path12" />
      <path
         d="M 36418,19800.2 C 36418,15881 35036.6,12284.6 32734.1,9471.6 29741.3,5815.4 25193,3482.2 20100,3482.2 15007,3482.2 10458.7,5815.4 7465.94,9471.6 5163.35,12284.6 3782,15881 3782,19800.2 c 0,8868.9 7075.6,16085.6 15890.4,16312.3 142,3.4 284.6,5.3 427.6,5.3 143,0 285.5,-1.9 427.6,-5.3 69.8,-1.9 139.7,-3.8 209.5,-6.7 C 29454.3,35771 36418,28598.7 36418,19800.2"
         style="fill:#ffd243;fill-opacity:1;fill-rule:nonzero;stroke:none"
         id="path14" />
      <path
         d="m 36418,19800.2 c 0,-3850.3 -1333.5,-7389.4 -3563.9,-10179.8 -39.7,-49.8 -79.9,-99.5 -120,-148.8 -43.6,-53.5 -88,-106.6 -132.5,-159.3 C 29608.3,5747.5 25118.4,3482.2 20100,3482.2 c -5018.4,0 -9508.3,2265.3 -12501.56,5830.1 -44.49,52.7 -88.98,105.8 -132.5,159.3 -40.18,49.3 -80.35,99 -120.06,148.8 C 5115.53,12410.8 3782,15949.9 3782,19800.2 c 0,8868.9 7075.6,16085.6 15890.4,16312.3 142,3.4 284.6,5.3 427.6,5.3 143,0 285.5,-1.9 427.6,-5.3 69.8,-1.9 139.7,-3.8 209.5,-6.7 C 29454.3,35771 36418,28598.7 36418,19800.2"
         style="fill:#ffd243;fill-opacity:1;fill-rule:nonzero;stroke:none"
         id="path16" />
      <path
         d="m 36418,19800.2 c 0,-3919.2 -1381.4,-7515.6 -3683.9,-10328.6 -3037.8,1083.9 -7570.2,1771.7 -12634.1,1771.7 -5063.4,0 -9596.3,-687.8 -12634.06,-1771.7 C 5163.35,12284.6 3782,15881 3782,19800.2 c 0,8868.9 7075.6,16085.6 15890.4,16312.3 142,3.4 284.6,5.3 427.6,5.3 143,0 285.5,-1.9 427.6,-5.3 69.8,-1.9 139.7,-3.8 209.5,-6.7 C 29454.3,35771 36418,28598.7 36418,19800.2"
         style="fill:#2662db;fill-opacity:1;fill-rule:nonzero;stroke:none"
         id="path18" />
      <path
         d="m 28761.3,7190.1 c 329.9,246.6 554.4,550 628.5,891 134.6,617.8 -260,1181.6 -968.5,1598.8 -464.7,273.8 -1066.8,469 -1748.4,539.3 -1720.5,177.5 -3295.8,-508 -3518.6,-1531.2 -82.9,-380.8 33.2,-754.6 300.2,-1083.1 450.6,-554.3 1336.6,-943.6 2416.8,-1055.1"
         style="fill:#ffd243;fill-opacity:1;fill-rule:nonzero;stroke:none"
         id="path20" />
      <path
         d="m 29324.7,8095.3 c 20.7,156.3 7.4,312.2 -37.4,457 -44,145.4 -120.4,279.5 -215.3,399.8 -94.1,121.4 -207.5,229.3 -331,325.6 -122.6,97.5 -255.8,183.6 -394.7,260.7 -276.8,153 -575.6,269.9 -884.5,352.5 -308.1,86.2 -626.8,135.6 -947.2,162.7 -640.1,50.8 -1293.5,-8.8 -1902.7,-205.7 -302.6,-101.1 -595.9,-236.2 -848.4,-426.9 -252.2,-188.2 -463.9,-437.9 -556.7,-744.5 l -0.2,-0.8 c -8.7,-28.4 -38.7,-44.6 -67.2,-35.9 -25.9,7.9 -41.5,33.5 -37.5,59.6 13.1,86.1 34.9,171.6 65.1,254.2 31,82.3 70.4,161.5 115.6,237.1 91.3,151 208.7,284.5 337.8,402.5 261.1,234.2 569,407.2 890.7,532.9 321.7,128 659.7,207.8 1000.6,254.3 341.2,47.5 686.9,52.8 1030,30.1 343,-23.9 683.7,-85.3 1016.2,-179.4 166.1,-47.9 328.9,-108 488.3,-176.7 159,-69.3 315.3,-147.2 463.1,-240.8 147,-92.8 288.9,-195.9 420.4,-313.3 129.9,-119 249.7,-252 348.2,-402.3 97,-150.7 172.5,-319.6 205.2,-498.6 16.1,-89.3 22.2,-180.2 17.8,-270 -5.3,-89.7 -21.3,-178 -45.9,-262.5 -10.4,-35.4 -47.4,-55.7 -82.9,-45.4 -32,9.3 -51.8,40.7 -47.5,72.8 l 0.1,1"
         style="fill:#371b45;fill-opacity:1;fill-rule:nonzero;stroke:none"
         id="path22" />
      <path
         d="m 26414.9,6943.7 c 1318.3,59.2 2324.3,747.2 2246.9,1536.5 -77.4,789.4 -1208.8,1381.2 -2527.1,1322 -1318.2,-59.3 -2324.2,-747.2 -2246.9,-1536.5 77.4,-789.4 1208.8,-1381.2 2527.1,-1322"
         style="fill:#ff9d33;fill-opacity:1;fill-rule:nonzero;stroke:none"
         id="path24" />
      <path
         d="m 26274.2,7697.6 c 1111.2,118.6 1910.9,679.2 1786.2,1252.3 -124.6,573.1 -1126.5,941.6 -2237.7,823 -1111.1,-118.5 -1910.9,-679.2 -1786.3,-1252.3 124.7,-573 1126.5,-941.5 2237.8,-823"
         style="fill:#ffd243;fill-opacity:1;fill-rule:nonzero;stroke:none"
         id="path26" />
      <path
         d="m 24416.7,9236 c -75.4,-64.7 -145.5,-134.4 -204.8,-210.9 -60.6,-75.2 -111.1,-156.8 -147.5,-242.3 -36.5,-85.4 -60.3,-174.5 -67.1,-264.2 -6.9,-89.5 3,-178.7 27.3,-264.2 47.1,-172 153.6,-327.8 287.5,-458.1 133.2,-132 294,-240.4 465.3,-329.3 172.2,-88 355,-158.4 543.1,-212.9 188.8,-52.6 382.3,-90.9 578.2,-112.3 391.3,-47.8 790.3,-34.6 1174.2,39.8 382.1,73.9 756.9,215.6 1048,446.7 144.3,115 263.6,255.8 327.9,414.9 64.5,158.9 75.6,333.1 23.3,500 -50.7,167.6 -159.6,322.8 -292.9,457.8 -133.6,135.9 -296.4,247.8 -468.3,344.5 -346.7,192.4 -739,308.9 -1139.9,377.8 l -0.5,0.1 c -29.3,5 -49,32.8 -43.9,62.1 4.6,27.1 28.7,45.9 55.4,44.7 417.7,-18.9 838.5,-105.8 1230,-284.2 194.6,-90.9 382.3,-204.2 548.7,-352 166.1,-146.3 311.4,-331.7 392.5,-556.5 40.3,-111.8 62.6,-232.8 62,-354.7 0.1,-122 -23.7,-243.2 -65.9,-356.1 -84.8,-227.3 -238.8,-413.8 -411.2,-560.2 -173.2,-147.9 -369,-258.3 -571,-344.3 -202.2,-86.6 -412.1,-148.3 -624.3,-192.1 -212.4,-44.1 -428.1,-65.5 -643.5,-71.4 -215.5,-6.5 -430.9,5.7 -644.4,32.7 -425.6,59.3 -848.8,178.9 -1229.8,396.9 -189.3,109.7 -370.1,241.1 -522,407.9 -150.3,165.9 -274.6,369.5 -322.6,600.6 -23.4,114.9 -26.1,234.7 -7.7,349.8 18.8,114.9 56.8,225.6 112.1,324.7 54.5,99.5 123.3,188.5 200.1,266.8 77.2,78.2 163,145 251.9,204.6 30.6,20.6 72,12.5 92.6,-18.2 19,-28.3 13.4,-66 -11.9,-87.7 l -0.9,-0.8"
         style="fill:#371b45;fill-opacity:1;fill-rule:nonzero;stroke:none"
         id="path28" />
      <path
         d="m 13014.9,7943.9 c 207.6,203 336.1,435.9 356.2,681 36.4,444.1 -291.8,801.1 -825.5,1026.6 -350.2,148 -789,228.3 -1271.7,213.9 -1218.4,-36.2 -2254.96,-661.8 -2315.32,-1397.3 -22.43,-273.7 93.46,-524.1 310.57,-728.7 366.47,-345.2 1021.55,-534.7 1786.55,-511.9"
         style="fill:#ffd243;fill-opacity:1;fill-rule:nonzero;stroke:none"
         id="path30" />
      <path
         d="m 13329.6,8628.3 c 0.9,111.7 -22,220.6 -66.6,319.1 -43.9,98.9 -110,186.7 -187.7,263.2 -77.3,77.1 -167,142.9 -262.6,199.5 -95.2,57.4 -196.7,105.9 -301.3,147.4 -208.6,82.1 -429.2,136.6 -653.7,166 -224.3,31.7 -452.5,37.1 -679.6,25.7 -453.7,-24.4 -906.2,-128.4 -1314.56,-324.8 -202.65,-99.8 -395.43,-223 -553.9,-381.7 -79.72,-78.6 -149.23,-166.9 -205.57,-263.1 -54.55,-96.9 -94.19,-202.8 -112.03,-314.3 l -0.13,-0.7 c -2.93,-18.4 -20.18,-30.8 -38.47,-27.9 -16.85,2.7 -28.74,17.5 -28.29,34.1 3.25,122.2 32.57,244.5 82.48,357.3 50.31,112.8 120.13,215.7 199.13,309.5 160.22,186.3 358.95,334.2 571.38,450.8 212.47,117.5 439.86,205.4 673.16,268.2 233.1,64.5 473.2,99.7 714,115.9 241,15.2 483.8,4.3 723.8,-30.3 239.5,-37.4 476.8,-100.7 700.5,-200.8 111,-50.6 219.2,-108.8 321.6,-177.8 101.4,-70.2 197.1,-151 279.6,-245.6 81.5,-95.1 149.9,-204.6 189.7,-325.3 40.2,-120.3 50.6,-249.3 32.1,-371.2 -3.4,-22.8 -24.7,-38.5 -47.5,-35.1 -20.8,3.2 -35.7,21.4 -35.5,41.9"
         style="fill:#371b45;fill-opacity:1;fill-rule:nonzero;stroke:none"
         id="path32" />
      <path
         d="m 11398.8,7553.2 c 915.4,164.2 1554.1,738.5 1426.5,1282.7 -127.5,544.2 -973,852.3 -1888.5,688.1 -915.4,-164.2 -1554.04,-738.5 -1426.48,-1282.7 127.56,-544.2 973.08,-852.2 1888.48,-688.1"
         style="fill:#ff9d33;fill-opacity:1;fill-rule:nonzero;stroke:none"
         id="path34" />
      <path
         d="m 11230.3,8066.8 c 765.2,186.3 1271.6,652.5 1131.2,1041.2 -140.5,388.7 -874.7,552.8 -1639.9,366.5 C 9956.4,9288.2 9449.93,8822 9590.37,8433.3 9730.82,8044.6 10465,7880.5 11230.3,8066.8"
         style="fill:#ffd243;fill-opacity:1;fill-rule:nonzero;stroke:none"
         id="path36" />
      <path
         d="m 9785.69,8972.2 c -47.16,-52.1 -90.36,-107.2 -125.31,-166.3 -36.21,-58.2 -64.95,-120.2 -83.37,-184 -37.93,-127.5 -31.04,-262.5 20.54,-379.3 49.27,-118 139.18,-218.8 245.71,-298.6 106.21,-81.1 229.54,-142.7 358.34,-189.6 258.8,-92.7 539.5,-130.6 818.2,-125 279.3,3.1 558.3,49.4 821.1,137.8 261.5,88.1 512.1,222.6 695.9,414 91,95.2 162.3,206.6 192.9,326.5 30.8,119.8 21.4,245.9 -32.2,359.7 -52.5,114.5 -144.6,213.8 -251.6,295.9 -107.4,82.9 -232.6,145.6 -362.5,197.1 -261.4,103.4 -547.8,144.2 -834.6,153.4 h -0.4 c -18.5,0.6 -33.1,16.2 -32.5,34.7 0.5,17.2 14.1,31 30.9,32.4 146.7,11.5 295.2,12.4 443,-2.7 147.8,-14.2 295.3,-41.8 439.6,-85.5 143.7,-45.5 284.2,-107.5 412.9,-194.8 128.3,-86.5 245.5,-201.5 321.6,-348.8 76.9,-146.2 101.2,-326.2 61.6,-488.7 -37.6,-163.9 -126.7,-306.5 -232.6,-423.5 -106.2,-118 -231.7,-212.5 -363.9,-290.9 -132.3,-78.6 -272.3,-140.9 -415.8,-190.8 -287.4,-99.1 -590,-144.1 -891.6,-146.5 -301.3,1.4 -606.5,45.2 -891.4,160.5 -141.59,58.3 -279.15,132.4 -399.87,233.5 -119.68,100.7 -224.49,229.5 -279.22,384.1 -54.95,154.5 -47.75,327.5 9.23,474.5 27.89,73.9 66.62,142.3 112.12,204.1 45.94,61.7 99,116.3 154.99,166.4 17.12,15.4 43.51,13.9 58.87,-3.3 14.32,-15.9 14.01,-40 -0.04,-55.6 l -0.59,-0.7"
         style="fill:#371b45;fill-opacity:1;fill-rule:nonzero;stroke:none"
         id="path38" />
      <path
         d="m 19942.8,5445.2 c 207.5,203 336,435.9 356.2,681 36.4,444.1 -291.8,801.1 -825.5,1026.6 -350.3,148 -789.1,228.3 -1271.7,213.9 -1218.4,-36.2 -2255,-661.8 -2315.4,-1397.3 -22.4,-273.7 93.5,-524.1 310.6,-728.7 366.5,-345.3 1021.6,-534.7 1786.6,-511.9"
         style="fill:#ffd243;fill-opacity:1;fill-rule:nonzero;stroke:none"
         id="path40" />
      <path
         d="m 20257.4,6129.6 c 1,111.7 -22,220.6 -66.5,319.1 -44,98.9 -110,186.7 -187.8,263.2 -77.3,77.1 -167,142.9 -262.5,199.5 -95.3,57.4 -196.7,105.9 -301.3,147.4 -208.6,82.1 -429.3,136.6 -653.7,166 -224.3,31.7 -452.5,37.1 -679.7,25.7 -453.6,-24.4 -906.1,-128.4 -1314.5,-324.8 -202.7,-99.8 -395.4,-223 -553.9,-381.7 -79.7,-78.6 -149.2,-166.9 -205.6,-263.1 -54.5,-96.9 -94.2,-202.8 -112,-314.3 l -0.1,-0.7 c -3,-18.4 -20.2,-30.8 -38.5,-27.9 -16.8,2.7 -28.7,17.5 -28.3,34.1 3.3,122.2 32.6,244.5 82.5,357.3 50.3,112.8 120.1,215.7 199.1,309.5 160.2,186.3 359,334.2 571.4,450.8 212.5,117.5 439.9,205.3 673.1,268.2 233.2,64.5 473.3,99.7 714.1,115.9 241,15.2 483.8,4.3 723.8,-30.3 239.4,-37.4 476.7,-100.7 700.5,-200.8 110.9,-50.6 219.2,-108.8 321.5,-177.8 101.5,-70.2 197.2,-151 279.7,-245.6 81.5,-95.1 149.9,-204.6 189.6,-325.3 40.3,-120.3 50.7,-249.3 32.1,-371.2 -3.4,-22.8 -24.7,-38.5 -47.5,-35.1 -20.8,3.2 -35.7,21.4 -35.5,41.9"
         style="fill:#371b45;fill-opacity:1;fill-rule:nonzero;stroke:none"
         id="path42" />
      <path
         d="m 18326.7,5054.5 c 915.4,164.2 1554,738.5 1426.5,1282.7 -127.6,544.2 -973.1,852.3 -1888.5,688.1 -915.4,-164.2 -1554.1,-738.5 -1426.5,-1282.7 127.5,-544.2 973,-852.2 1888.5,-688.1"
         style="fill:#ff9d33;fill-opacity:1;fill-rule:nonzero;stroke:none"
         id="path44" />
      <path
         d="m 18158.1,5568.1 c 765.2,186.3 1271.7,652.5 1131.2,1041.2 -140.4,388.7 -874.6,552.8 -1639.8,366.5 -765.2,-186.3 -1271.7,-652.5 -1131.3,-1041.2 140.5,-388.8 874.7,-552.8 1639.9,-366.5"
         style="fill:#ffd243;fill-opacity:1;fill-rule:nonzero;stroke:none"
         id="path46" />
      <path
         d="m 16713.5,6473.5 c -47.1,-52.1 -90.3,-107.3 -125.3,-166.3 -36.2,-58.2 -64.9,-120.2 -83.3,-184 -38,-127.5 -31.1,-262.5 20.5,-379.3 49.3,-118 139.2,-218.8 245.7,-298.6 106.2,-81.1 229.6,-142.7 358.3,-189.6 258.9,-92.7 539.5,-130.6 818.3,-125 279.2,3.1 558.2,49.4 821.1,137.8 261.5,88.1 512,222.6 695.9,414 91,95.2 162.3,206.6 192.9,326.5 30.8,119.8 21.3,245.9 -32.2,359.7 -52.5,114.5 -144.7,213.8 -251.6,295.9 -107.4,82.9 -232.6,145.6 -362.5,197.1 -261.4,103.4 -547.9,144.2 -834.6,153.4 h -0.5 c -18.5,0.6 -33.1,16.2 -32.5,34.7 0.6,17.2 14.2,31 31,32.4 146.7,11.5 295.1,12.4 442.9,-2.7 147.9,-14.2 295.3,-41.8 439.7,-85.5 143.6,-45.5 284.2,-107.5 412.9,-194.8 128.3,-86.5 245.5,-201.5 321.6,-348.8 76.9,-146.2 101.1,-326.2 61.5,-488.7 -37.6,-163.9 -126.6,-306.5 -232.5,-423.5 -106.2,-118 -231.8,-212.5 -363.9,-290.9 -132.4,-78.6 -272.4,-140.9 -415.8,-190.8 -287.5,-99.1 -590,-144.1 -891.6,-146.5 -301.3,1.4 -606.6,45.2 -891.4,160.5 -141.6,58.3 -279.2,132.4 -399.9,233.5 -119.7,100.7 -224.5,229.5 -279.2,384.1 -55,154.5 -47.8,327.5 9.2,474.5 27.9,73.9 66.6,142.3 112.1,204.1 46,61.7 99,116.3 155,166.4 17.1,15.3 43.5,13.9 58.9,-3.3 14.3,-15.9 14,-40 -0.1,-55.6 l -0.6,-0.7"
         style="fill:#371b45;fill-opacity:1;fill-rule:nonzero;stroke:none"
         id="path48" />
      <path
         d="m 21432.7,8918.9 c 218.5,139.8 361.8,306.4 399.9,488.4 69,329.8 -225.7,615.4 -731.5,814.5 -331.9,130.5 -755.7,215.7 -1229.5,232.6 -1196.1,42.6 -2258.3,-365.5 -2372.6,-911.7 -42.5,-203.2 52.2,-396.9 249.5,-562.2 333,-279 960.4,-458.1 1711.5,-484.9"
         style="fill:#ffd243;fill-opacity:1;fill-rule:nonzero;stroke:none"
         id="path50" />
      <path
         d="m 21791.8,9415.8 c 11.3,98 -11.2,192.7 -62,272.8 -48.7,81.6 -122.7,148.6 -202.4,207.6 -162.5,116.1 -354.8,198.2 -550.4,262.1 -392.6,128.8 -812.5,179.5 -1230,187.4 -418,5.7 -838.4,-37.5 -1240.8,-145.5 -200,-56 -396.9,-127 -574.4,-230.2 -88.9,-51.1 -171.7,-111.7 -243.1,-182.6 -70.5,-71.3 -129.1,-155.1 -156.8,-251.6 l -0.1,-0.2 c -5.2,-17.8 -23.8,-28.2 -41.6,-23 -16.4,4.7 -26.4,20.6 -24.1,37 16.1,114.3 71.3,220.4 142.4,308.6 70.7,89.6 157.5,163.1 248.3,228.1 183.7,127.7 387.3,219.8 596.1,289.1 208.9,70.3 424.1,117.5 641,148.9 216.9,32.6 436.3,44.6 655.3,44.2 437.4,-3.4 878.4,-63.7 1295.9,-216.8 206.6,-79.8 409.1,-179.2 583.5,-329.1 86.3,-74.9 164.7,-165.2 215.6,-274.1 24.9,-54.5 41.5,-113.5 46.8,-173.6 5.6,-60 -2.3,-120.2 -17.6,-176.1 -6.2,-22.2 -29.1,-35.3 -51.3,-29.2 -20.1,5.5 -32.8,24.9 -30.5,45 l 0.2,1.2"
         style="fill:#371b45;fill-opacity:1;fill-rule:nonzero;stroke:none"
         id="path52" />
      <path
         d="m 32854.1,9620.4 c -39.7,-49.8 -79.9,-99.5 -120,-148.8 -43.6,-53.5 -88,-106.6 -132.5,-159.3 -8578.5,2618.3 -16528,2618.3 -25003.16,0 -44.49,52.7 -88.98,105.8 -132.5,159.3 -40.18,49.3 -80.35,99 -120.06,148.8 18.18,14.8 39.23,26.8 63.14,33.9 4276.08,1328.3 8367.58,1980.7 12509.18,1995.5 h 141.6 c 4190.5,0 8356.1,-652.8 12730.2,-1995.5 24.4,-7.1 45.9,-18.6 64.1,-33.9"
         style="fill:#371b45;fill-opacity:1;fill-rule:nonzero;stroke:none"
         id="path54" />
      <path
         d="m 19820.4,8494.3 c 908.9,70.3 1577.5,462.7 1493.4,876.7 -84,413.9 -889.1,692.6 -1798,622.3 -908.9,-70.3 -1577.5,-462.8 -1493.4,-876.8 84.1,-413.9 889.1,-692.5 1798,-622.2"
         style="fill:#ff9d33;fill-opacity:1;fill-rule:nonzero;stroke:none"
         id="path56" />
      <path
         d="m 19693.9,8887.6 c 763.4,95.4 1294.5,414.8 1186.1,713.3 -108.4,298.5 -815.2,463.1 -1578.7,367.7 -763.5,-95.4 -1294.5,-414.7 -1186.1,-713.2 108.4,-298.5 815.2,-463.2 1578.7,-367.8"
         style="fill:#ffd243;fill-opacity:1;fill-rule:nonzero;stroke:none"
         id="path58" />
      <path
         d="m 18343.1,9635.7 c -101.2,-74.6 -192.9,-165.1 -237.7,-269.7 -46,-104.4 -31.8,-214.8 33.7,-304.4 62.9,-91.4 163.1,-163.8 270.4,-220.3 107.6,-57.7 225.2,-101.4 345.6,-135.5 241.8,-67.3 495.1,-101.1 748.8,-107.6 253.8,-8.6 508.7,10 756.7,56.5 246.9,45.9 492,122.3 696.2,248.3 100.7,62.8 190.1,142.4 235.1,233.4 45.4,90.8 40.7,188 -17,279.9 -56.1,92.2 -153.1,169.4 -257.3,233 -105.1,64.1 -221.9,113.6 -341.7,155.3 -240.8,82.9 -496.6,128.7 -754.9,154.8 -18.5,1.8 -32.1,18.2 -30.3,36.6 1.6,17.2 15.9,30 32.7,30.5 264.6,6.1 531.9,-19.8 793.2,-87.6 130.3,-34.7 259,-80.9 382.3,-145.3 122.4,-64.5 242.6,-148.1 331.3,-276 43,-63.8 77.8,-140.6 85.5,-224.7 9.1,-83.7 -7.2,-169.3 -41.4,-241.8 -69,-147 -184.7,-247.2 -301.7,-326.4 -118.5,-79.6 -246.1,-136.3 -375.2,-183.1 -129.5,-45.7 -261.5,-81.1 -394.7,-106.9 -266.5,-52.2 -537.7,-67 -807.1,-57.1 -269.1,14.3 -538.9,53.2 -798.6,138.5 -129.6,43.1 -257.2,95.9 -377.2,168.1 -118.4,72.9 -234.2,163.3 -313.2,293.7 -38.8,64.8 -65.3,141.6 -67.3,220.9 -3,79.1 17.4,157 53.7,222.1 72.8,132 188.2,218.3 305.2,285.1 20,11.4 45.5,4.4 56.9,-15.6 10.6,-18.6 5.4,-41.9 -11.5,-54.3 l -0.5,-0.4"
         style="fill:#371b45;fill-opacity:1;fill-rule:nonzero;stroke:none"
         id="path60" />
      <path
         d="m 14705,21941 c -830,-811.2 -1241.5,-4207.7 -770.6,-6138.3 470.9,-1930.6 3952.2,-1621.8 5923.8,-1297.9 1971.6,324 1375.9,4799.8 1192.2,5995.6 -286.8,1867.3 -5115.7,2642.5 -6345.4,1440.6"
         style="fill:#ffffff;fill-opacity:1;fill-rule:nonzero;stroke:none"
         id="path62" />
      <path
         d="m 15512.7,14652.6 c -527.6,147.1 -957.1,388.8 -1205.1,763.8 21.9,37.8 41.8,77.1 55.7,118.7 l 15.8,42.6 c 4.4,13.4 7.2,24.6 10.8,37 6.9,24.2 13.8,48.5 19.5,72.9 24.1,95.9 42.2,192.6 55.3,289.5 8.6,-2.6 17.2,-5.1 26,-7.5 107.7,-29.3 209.6,-44 305.5,-44 183.9,0 345.8,53.9 483.2,161.4 110.4,86.4 201.9,203 275.5,355.2 11.3,-64.7 26.1,-129 42.4,-192.8 31.2,-120.2 72.4,-238.1 122.6,-352.1 70.5,-195.1 153.6,-386.6 252.6,-571.8 51.4,-96.2 107.7,-190.3 169,-281.5 -202.3,-153.9 -414.6,-278.7 -628.8,-391.4 m 141.8,4044.3 c -71.9,81.6 -168,142.4 -278.8,170.3 l -90.7,22.8 c 4.6,29 9.2,57.9 13.9,86.6 123.8,46.8 254.9,72.3 390,72.9 l 51,-1.7 c -28.9,-115.6 -56.7,-231.9 -82.7,-349 -0.9,-0.6 -1.8,-1.3 -2.7,-1.9"
         style="fill:#cdc6d0;fill-opacity:1;fill-rule:nonzero;stroke:none"
         id="path64" />
      <path
         d="m 14705,21941 h 0.5 -0.5 m 2091.7,387.4 c -864.5,0 -1603.7,-178 -1958,-524.3 -770.1,-752.6 -1172.9,-4092.5 -718.4,-5956 426.8,-1750.3 3758.8,-1474.5 5706.9,-1154.5 1739.2,285.8 1231.3,4494.6 1034.1,5777.8 -90.7,590.7 -757.5,1134.6 -1829.3,1492.4 -733.5,244.9 -1526.5,364.6 -2235.3,364.6 m 441.4,-8256.9 c -1698.8,0 -3175.2,396.9 -3489.6,1685.9 -497.5,2039.9 -51.6,5465.9 822.8,6320.4 837.7,818.8 3030.6,766.8 4581.9,249 1230.5,-410.8 1971.4,-1049.1 2086.4,-1797.3 135,-878.9 281.7,-2176.1 214,-3364.7 -98.9,-1736 -625.3,-2694.4 -1564.4,-2848.7 -858.3,-141.1 -1783.7,-244.6 -2651.1,-244.6"
         style="fill:#371b45;fill-opacity:1;fill-rule:nonzero;stroke:none"
         id="path66" />
      <path
         d="m 15331.6,18680.3 -924.7,234.8 c -209,53 -417.8,-88.8 -444.2,-302.9 -91,-736.3 -181.1,-2249.6 575.2,-2457.5 916.5,-252 1092.6,790.3 1064.1,2186.6 -3.2,160.8 -114.4,299.4 -270.4,339"
         style="fill:#ffffff;fill-opacity:1;fill-rule:nonzero;stroke:none"
         id="path68" />
      <path
         d="m 14793.7,16308.5 c -61.1,0 -128.4,10.1 -202.4,30.3 -35.7,9.7 -69.1,24.2 -100.3,43.1 -0.1,14.9 -0.3,29.9 -0.6,44.9 l -0.5,15.6 c 3.4,2.5 6.8,5 10.1,7.5 23.1,17.5 45.5,35.8 67,55.4 43,39.1 83.2,82.5 118.1,131.7 60.5,83.5 106.2,184 126.3,289 373.5,176.1 512.7,759.3 541.6,1532.7 27.1,-24.1 46.1,-56.6 53.1,-92.8 -27.5,-78.8 -44.8,-171.9 -44.6,-281.5 v 0 c 0,-5 0,-10.1 0.1,-15.2 0,-3.4 0.1,-6.9 0.2,-10.4 3.1,-123.4 21.8,-226.1 46.8,-309.9 -17.2,-512.7 -92.2,-1147.2 -364.9,-1360.5 -68.3,-53.3 -151,-79.9 -250,-79.9 m -305.7,187.9 -0.1,1.8 c 0,-0.6 0.1,-1.2 0.1,-1.8"
         style="fill:#cdc6d0;fill-opacity:1;fill-rule:nonzero;stroke:none"
         id="path70" />
      <path
         d="m 14315.4,18733.9 c -33.4,0 -65.9,-10.1 -94.3,-29.7 -39.9,-27.3 -65.1,-68.9 -70.9,-116.8 -120.8,-996.1 -68.3,-2109.8 441.1,-2248.6 193.9,-52.9 342,-36.6 452.4,49.6 402.2,314.6 374.4,1545.8 365.2,1950.4 -1.6,74.3 -53.7,139 -126.6,157.3 l -925.2,232.5 c -13.9,3.5 -27.9,5.3 -41.7,5.3 m 480.8,-2808.3 c -95.9,0 -197.8,14.7 -305.5,44 -878.8,239.4 -828.5,1771.8 -720.4,2663.9 19,156.2 104.3,296.9 234.1,386.1 130.1,89.5 292.6,118.7 446,80.1 l 925.3,-232.5 c 239.3,-60.2 410.2,-273.9 415.8,-519.8 28.9,-1281.1 -124.3,-1957 -512.1,-2260.4 -137.4,-107.5 -299.3,-161.4 -483.2,-161.4"
         style="fill:#371b45;fill-opacity:1;fill-rule:nonzero;stroke:none"
         id="path72" />
      <path
         d="m 14546.7,21828.3 c 114.6,-25.5 225,-52.6 336.7,-80.9 111.4,-28.5 222.2,-58.3 332.8,-89.5 221,-62.8 440.7,-131.6 657.1,-213.5 46.6,-17.7 70.1,-69.7 52.4,-116.3 -16.2,-42.9 -61.5,-66.2 -104.9,-56 l -0.8,0.2 c -217.2,50.7 -438.3,89 -660.4,121.4 -111.1,15.9 -222.4,30.5 -333.9,43.7 -111.1,13 -224,25.2 -333.2,34.7 h -0.7 c -99.4,8.7 -173,96.2 -164.3,195.6 8.6,99.3 96.2,172.9 195.6,164.3 7.6,-0.7 16.2,-2.1 23.6,-3.7"
         style="fill:#371b45;fill-opacity:1;fill-rule:nonzero;stroke:none"
         id="path74" />
      <path
         d="m 29477.8,22859.9 c -276.5,-1255.8 -900.8,-2380.9 -1740.4,-2805.2 -752.2,-380.7 -1240.1,-502.7 -2501.3,-625.2 -660.3,-64 -1308.9,-36.5 -1878.7,28.3 -1118.4,127.1 -1932.3,397.3 -1932.3,397.3 l -125.7,1082.4 -70.3,605.8 -182.4,1570.2 c 0,0 643.2,-125.2 1478.3,-188.7 576.1,-44.1 1243.6,-59 1853.5,17.1 739.2,91.5 1394.1,315.8 1702.7,781.5 643.7,973 -57.3,2187.8 679.7,2813.9 636.9,541.8 2612,-90.1 2813.8,-1401.3 111.3,-723.9 69.8,-1523.4 -96.9,-2276.1"
         style="fill:#ffffff;fill-opacity:1;fill-rule:nonzero;stroke:none"
         id="path76" />
      <path
         d="m 24461.1,19584.4 c -289.4,0 -588,14.6 -894,43.8 -15.6,24.5 -32.4,48.2 -50.5,71.1 -23,178.5 -48,356.7 -78.1,533.9 -75.3,435 -170.9,866.2 -304.3,1287.4 346.9,-307.6 1330.7,-1056.9 2683.1,-1056.9 468.8,0 981.9,90 1528.2,319.8 766.2,321.9 1347.6,892.2 1782.6,1514 -316.3,-960.8 -844.4,-1752.2 -1477,-2072.1 l -0.1,-0.1 c -725.6,-367.1 -1203.2,-486 -2433.3,-605.4 -243.9,-23.7 -496.5,-35.5 -756.6,-35.5"
         style="fill:#cdc6d0;fill-opacity:1;fill-rule:nonzero;stroke:none"
         id="path78" />
      <path
         d="m 21600.7,20001.3 c 259.7,-76.4 933.6,-257.5 1778.3,-353.4 649.7,-73.9 1268.3,-83.3 1838.7,-28 1230.1,119.4 1707.7,238.3 2433.3,605.4 l 0.1,0.1 c 1206.8,610.3 2033.6,2937 1734.5,4881.5 -99.9,649.6 -703.1,1092.4 -1234.2,1290.3 -515.9,192.2 -1036.8,189.8 -1266.6,-5.7 -312.6,-265.6 -310.1,-689.2 -307.2,-1179.6 3.1,-503.9 6.5,-1075 -336.9,-1594.1 -305.7,-461.4 -924.3,-752.6 -1838.7,-865.8 -536.7,-67 -1173.2,-73 -1891.6,-18 -529.2,40.3 -978.6,104.2 -1244.1,147.1 l 334.4,-2879.8 m 2860.4,-799.5 c -362.9,0 -739.1,22 -1125.4,65.9 -1125.2,127.8 -1936.9,394.5 -1970.9,405.8 l -115.7,38.5 -422.6,3639.2 256.7,-49.9 c 6.4,-1.2 643.2,-123.9 1456.3,-185.7 693.1,-53.1 1303.7,-47.6 1815.3,16.2 798.7,98.8 1325.8,333.4 1566.8,697.3 279.2,421.9 276.3,909.2 273.4,1380.5 -3.2,537 -6.6,1092.4 442,1473.5 340.9,290 987.9,318.5 1648,72.6 632.8,-235.7 1353.7,-777.4 1478.8,-1590.6 290.3,-1887.1 -435.1,-4520.1 -1940.1,-5281.2 -777.2,-393.2 -1281.4,-519.8 -2569,-644.9 -256.1,-24.8 -521.1,-37.2 -793.6,-37.2"
         style="fill:#371b45;fill-opacity:1;fill-rule:nonzero;stroke:none"
         id="path80" />
      <path
         d="m 20994,15259.8 c -332,-2136.8 -1436.9,-3946.2 -4278.7,-4407.9 0,0 23,-37.4 56.3,-101.4 73.9,-141.4 198.2,-411.7 239.2,-698.1 73.4,-501.4 -107.6,-1051.8 -1257.2,-1045.5 -1292.7,7.2 -2019.2,1023 -2234.1,2121.5 -156.7,802.7 -40.1,1649.9 328.8,2179.7 557.2,800.8 1574.7,935.5 2436.9,1605.3 205.4,159.5 401.7,349.5 581.5,586 155,204.1 298.2,444.2 427,705 289.2,586.4 504,1276.9 609,1898.1 l 3203.9,-707.7 c 21.2,-722.9 -5.4,-1445.8 -112.6,-2135"
         style="fill:#ffffff;fill-opacity:1;fill-rule:nonzero;stroke:none"
         id="path82" />
      <path
         d="m 16522.1,10801 c -470.3,110.5 -1131,352.8 -1672.5,881.4 0,0 437.3,-105.2 1008.4,-105.2 716,0 1642.3,165.3 2182,910.2 773.8,1068.2 -1062.4,812.4 -1684.1,2239.5 5.8,4.3 11.5,8.6 17.2,13 100.2,-116.4 209.3,-225.8 326.5,-326.3 301.6,-253.4 656.1,-440.9 1025.3,-558.7 369.3,-120.3 749.9,-177 1124.2,-210.4 187.2,-16 373.5,-26.5 557.4,-36.4 183.7,-10.2 365.9,-19.3 540.8,-38.8 86.8,-10.5 173,-22.3 252.9,-41 l 59.9,-13.9 20.2,-6.4 c -663.1,-1380.4 -1848.6,-2183.3 -3595.6,-2467.4 l -281.2,-46 118.6,-193.6"
         style="fill:#cdc6d0;fill-opacity:1;fill-rule:nonzero;stroke:none"
         id="path84" />
      <path
         d="m 15773.5,9198 c -6.3,0 -12.5,0 -18.8,0 -973.3,5.4 -1494.6,617.4 -1760.4,1129.8 -57,109.8 -107.1,224.6 -150.3,342.7 433.3,-529 1112.1,-1067.9 2079.4,-1067.9 52.1,0 104.8,1.5 158.6,4.7 358.1,21.5 595.2,118.5 751.6,244.1 -1.8,-107.6 -22.9,-209.7 -72.2,-297.1 -133.3,-236.5 -465.6,-356.3 -987.9,-356.3"
         style="fill:#cdc6d0;fill-opacity:1;fill-rule:nonzero;stroke:none"
         id="path86" />
      <path
         d="m 15772.6,8815.4 c -6.7,0 -13.3,0 -20,0 -908.4,5 -1653.5,479.5 -2098,1336.2 -535.7,1032.4 -519.6,2467 36.6,3266.1 359.1,515.6 875.4,767.7 1421.9,1034.7 561.9,274.4 1142.8,558.1 1601.3,1162.6 448.9,591.9 841.3,1580.9 999.6,2519.5 17.6,104.2 116.4,174.3 220.5,156.8 104.1,-17.6 174.4,-116.3 156.8,-220.5 -170.3,-1010.2 -581.1,-2039.8 -1072,-2687.1 -513.6,-677.1 -1164.2,-994.8 -1738.2,-1275.1 -522.4,-255.1 -973.6,-475.5 -1275.8,-909.6 -482.2,-692.6 -487,-1953.8 -11,-2871.2 265.8,-512.4 787.1,-1124.4 1760.4,-1129.8 6.3,0 12.5,0 18.8,0 522.3,0 854.6,119.8 987.9,356.3 206.1,365.7 -81,988.3 -209,1197.3 l -148.9,243 281.2,46 c 2999.6,487.8 4343.9,2505.1 4230.4,6348.8 -3.1,105.6 80,193.8 185.6,196.9 107.6,3.2 193.8,-80 196.9,-185.6 115.3,-3906 -1289.4,-6097.8 -4292.6,-6691.2 147.5,-321.4 339.9,-897.9 90.2,-1342.2 -205.8,-366.3 -650.8,-551.9 -1322.6,-551.9"
         style="fill:#371b45;fill-opacity:1;fill-rule:nonzero;stroke:none"
         id="path88" />
      <path
         d="m 19213,12105.2 c -785.9,0 -1566.1,382.5 -2281.8,1125.1 -641.7,665.5 -1002.8,1376.4 -1017.9,1406.3 -35.6,70.8 -7.1,157 63.7,192.6 70.5,35.7 157,7.3 192.7,-63.5 13.9,-27.6 1413.4,-2751.4 3478,-2329.2 77.9,15.9 153.4,-34.2 169.3,-111.8 15.9,-77.6 -34.2,-153.5 -111.8,-169.3 -164,-33.6 -328.3,-50.2 -492.2,-50.2"
         style="fill:#371b45;fill-opacity:1;fill-rule:nonzero;stroke:none"
         id="path90" />
      <path
         d="m 14919.9,11739 c 23.4,-24.5 55.5,-54.4 86,-80.3 31.2,-26.4 63.1,-52.6 96.6,-76.8 33.2,-24.9 66.9,-48.8 102,-71.2 34,-23.6 70.1,-44.5 105.8,-65.7 143.5,-84.1 295.6,-153.2 451.2,-211.7 79.1,-26.4 157,-55.2 237.9,-75.5 40.4,-10.6 79.7,-23.8 120.6,-32.1 l 122,-26.7 c 40.4,-9.8 81.6,-16.2 122.8,-22.5 l 123.2,-19.7 c 82.7,-10.4 165.9,-17.2 248.5,-26.1 l 11.4,-1.2 c 99.1,-10.7 170.8,-99.7 160.1,-198.8 -10.8,-99.1 -99.8,-170.8 -198.9,-160.1 -4.9,0.5 -10.1,1.4 -14.9,2.2 -89,17.3 -178.1,32.6 -266.4,51.7 l -131.9,32.8 c -43.9,10.7 -87.7,21.6 -130.8,35.9 l -129.6,40.4 c -43.3,12.9 -85.2,30.9 -127.8,46.1 -85.4,29.8 -167.8,68.2 -250.6,104.3 -163.4,78.1 -321.6,167.2 -469.5,272.2 -36.8,26.4 -73.8,52.4 -108.9,81.4 -35.9,27.7 -70.6,57 -104.6,87.4 -34.3,29.7 -67.1,61.7 -99.4,94.3 -32.8,33.6 -62.2,65 -95.1,106.7 -30.8,38.9 -24.2,95.5 14.8,126.3 36.6,29 88.9,24.9 120.6,-8.1 l 4.9,-5.2"
         style="fill:#371b45;fill-opacity:1;fill-rule:nonzero;stroke:none"
         id="path92" />
      <path
         d="m 23214.2,16120.1 c -45.1,-104.9 -92.4,-202.2 -141,-291.9 -38.3,-70.7 -78.4,-137.8 -120.7,-202.6 -709,-1091.9 -1912.1,-1370.3 -2782.8,-1482.4 -922,-119.4 -4077.8,179.7 -4444,2365.2 -1.8,10.4 -3.6,20.7 -4.9,31.1 -58.1,361.7 -70.7,702.7 -50.9,1036.9 2.2,40.1 5.4,80.2 8.5,120.2 39.7,478.8 142.8,947.8 271.6,1449.1 179.3,696.8 407.7,1455.8 581.1,2389.5 9.5,49.1 18.5,98.2 27,148.2 74.3,420.3 137,876.6 178.9,1377.9 4.9,57.2 9.4,114.9 13.5,173.4 38.7,529.3 54,1108.5 36,1748.1 l 5229.5,-1015.2 333.3,-682.9 175.7,-359.9 353.1,-724.3 108.1,-499.1 11.3,-51.3 c 83.3,-431.6 235.1,-1195.9 284.2,-1570.2 28.4,-217.1 53.6,-424.3 75.7,-622.1 183.8,-1638.2 154.9,-2641.3 -143.2,-3337.7"
         style="fill:#ffffff;fill-opacity:1;fill-rule:nonzero;stroke:none"
         id="path94" />
      <path
         d="m 23085.6,21668.8 c 159.3,-468.2 268.7,-949.5 352.9,-1435.6 41.3,-243.2 73,-488.2 103.2,-733.5 29.7,-245.4 54.1,-491.7 71.8,-739.1 35.4,-494.5 47.5,-993.2 10.2,-1494.8 -18.4,-250.6 -52.1,-502.1 -105.3,-752.6 -55.2,-250.3 -131.9,-500.3 -255.7,-739.4 -61.9,-117.3 -127.9,-227.5 -203.4,-334.7 -73.9,-107.4 -155.5,-209.9 -243.5,-306.5 -87.3,-97.3 -181.4,-188.5 -281,-272.8 -99.4,-84.4 -203.2,-163.7 -312.1,-234.6 -434.9,-287.2 -927.3,-463 -1420.8,-568.7 -123.6,-26.7 -247.7,-49.3 -371.7,-68.7 -62,-9.8 -124,-18.6 -185.9,-26.8 -30.5,-4.2 -62,-8.3 -96.1,-12 -32.9,-3.4 -65.7,-6.3 -98.2,-8.5 -259.1,-17.4 -510.6,-8.5 -762.1,11.2 -501.6,42.1 -998.2,135.2 -1480.2,290.8 -480,156.8 -950.3,377.8 -1354.4,708.2 -201,164.9 -383.3,358.1 -530.6,578 -147.4,219.5 -259,465 -325.4,720.7 -16.3,63.9 -31.2,128.3 -42.5,193.1 -12.4,65 -18.9,126.3 -28.8,189.6 -10.1,62.7 -16,126 -21.8,189.3 -6.3,63.2 -12.6,126.4 -14.6,190 -14.6,253.7 -9.7,508.7 14.9,760.1 48.1,503.7 160.7,992 284.3,1468.2 124.3,476.7 256.3,945.8 369.9,1417.8 113.8,471.7 209.8,946.2 282.6,1424.4 144.1,956.4 191,1926.5 164.9,2895.9 v 0.3 c -2.7,99.5 75.8,182.3 175.3,185 99.5,2.7 182.3,-75.7 184.9,-175.2 26.7,-987.2 -21.1,-1980 -168.8,-2959.8 -74.5,-489.7 -172.9,-975.4 -288.6,-1455.1 -115.6,-479.8 -248.7,-953.2 -371.3,-1423.6 -122.4,-470.5 -229.5,-939.8 -274.3,-1411.4 -23.2,-235.6 -27.5,-471.5 -14,-706.4 1.7,-58.8 7.6,-117.3 13.5,-175.8 5.4,-58.5 10.7,-117.2 20.2,-175.3 9,-57.5 15.4,-118.1 26.5,-173.2 9.8,-55.7 22.9,-110.6 36.9,-165.2 57.5,-217.8 152.3,-423.8 278.2,-610.2 125.9,-186.4 283.3,-352.9 460.9,-497.5 356.5,-289.7 787.5,-493.4 1236.4,-637.8 450.3,-143.7 922.5,-230.6 1396,-268.6 236.3,-17.8 475.3,-24.7 704.7,-8.3 28.6,2.2 56.8,4.7 84.6,7.7 26.8,3 55.9,6.8 86,11.1 59.3,8 118.5,16.7 177.3,26.2 117.7,18.9 234.4,40.6 349.8,66 461.2,101 906.6,262.1 1289.8,516.2 96.2,62.6 187,132.4 274,206.4 87.2,73.8 169.1,153.5 245.1,238.5 76.8,84.3 148,173.7 212.5,268 65.5,92.8 125.2,193.2 177.4,292.3 50.6,98 93.5,202.5 130,310.7 35.8,108.6 66,220.3 92.3,333.8 50.1,227.9 83.8,462.3 102.8,699.5 39,474.7 31.3,957.4 0.2,1439 -30.5,482.1 -89.4,963.7 -158.4,1444.1 -63.3,481.5 -136,962.4 -176.8,1452.4 v 0.4 c -4.2,49.9 32.9,93.8 82.9,97.9 42.3,3.6 80.3,-22.7 93.4,-61.1"
         style="fill:#371b45;fill-opacity:1;fill-rule:nonzero;stroke:none"
         id="path96" />
      <path
         d="m 24221.4,18427.9 c 25.1,-346.3 -235.4,-647.5 -581.7,-672.7 -346.4,-25.1 -647.7,235.3 -672.8,581.7 -25.1,346.4 235.3,647.6 581.7,672.8 346.4,25.1 647.6,-235.3 672.8,-581.8"
         style="fill:#ffffff;fill-opacity:1;fill-rule:nonzero;stroke:none"
         id="path98" />
      <path
         d="m 23770.4,17930.1 -22.1,390.3 c 123.6,39.8 229.6,116.6 306,216.4 12.7,-37.8 20.9,-77.8 23.9,-119.3 15.8,-217.2 -114.7,-412 -307.8,-487.4"
         style="fill:#cdc6d0;fill-opacity:1;fill-rule:nonzero;stroke:none"
         id="path100" />
      <path
         d="m 23594.4,18867.8 c -11.7,0 -23.5,-0.4 -35.4,-1.3 -266.9,-19.3 -468.4,-252.3 -449,-519.2 9.4,-129.3 68.6,-247.3 166.7,-332 98,-84.8 223.3,-126.3 352.6,-117 266.9,19.4 468.3,252.3 448.9,519.2 -18.5,255.1 -232,450.3 -483.8,450.3 M 23593,17610 c -185.3,0 -362.5,65.7 -504.1,188.2 -156,134.9 -250.2,322.5 -265.1,528.4 -30.8,424.7 289.6,795.3 714.4,826.2 425.9,30.7 795.4,-289.7 826.3,-714.5 30.8,-424.7 -289.7,-795.3 -714.4,-826.2 -19.1,-1.4 -38.1,-2.1 -57.1,-2.1"
         style="fill:#371b45;fill-opacity:1;fill-rule:nonzero;stroke:none"
         id="path102" />
      <path
         d="m 23485.1,19736.8 c -4.3,4.9 -8.7,9.8 -13.2,14.6 1.4,44.4 3.2,88.3 5.2,131.9 2.3,-48.5 5,-97.3 8,-146.5"
         style="fill:#371b45;fill-opacity:1;fill-rule:nonzero;stroke:none"
         id="path104" />
      <path
         d="m 22986,16719.6 -3283.2,-185.7 c -388.6,-22.1 -724.8,277.9 -747,667 l -98.7,1747.1 c -19.3,340.6 208.5,640.5 526.6,724.6 45,12.2 91.9,19.5 140.4,22.3 l 3282.7,185.8 c 389.1,22.1 725.3,-277.9 746.9,-667 l 78.6,-1383.8 20.7,-363.4 c 22.1,-389 -278.5,-724.8 -667,-746.9"
         style="fill:#ffffff;fill-opacity:1;fill-rule:nonzero;stroke:none"
         id="path106" />
      <path
         d="m 15766.8,18758.9 c 0,0 -419,-149.3 -405,-700.1 11,-431.5 211.8,-609.9 211.8,-609.9 0,0 1460.2,-485.1 3331.4,15.9 0,0 351.1,156.1 374.9,670.1 9,196.3 -111,494.3 -386.3,557.8 0,0 -1702.6,-346.9 -3126.8,66.2"
         style="fill:#ffffff;fill-opacity:1;fill-rule:nonzero;stroke:none"
         id="path108" />
      <path
         d="m 22986,16719.6 -3283.2,-185.7 c -388.6,-22.1 -724.8,277.9 -747,667 l -98.7,1747.1 c -19.3,340.6 208.5,640.5 526.6,724.6 45,12.2 91.9,19.5 140.4,22.3 l 3282.7,185.8 c 389.1,22.1 725.3,-277.9 746.9,-667 l 78.6,-1383.8 20.7,-363.4 c 22.1,-389 -278.5,-724.8 -667,-746.9"
         style="fill:#ffffff;fill-opacity:1;fill-rule:nonzero;stroke:none"
         id="path110" />
      <path
         d="m 15766.8,18758.9 c 0,0 -419,-149.3 -405,-700.1 11,-431.5 211.8,-609.9 211.8,-609.9 0,0 1460.2,-485.1 3331.4,15.9 0,0 351.1,156.1 374.9,670.1 9,196.3 -111,494.3 -386.3,557.8 0,0 -1702.6,-346.9 -3126.8,66.2"
         style="fill:#ffffff;fill-opacity:1;fill-rule:nonzero;stroke:none"
         id="path112" />
      <path
         d="m 18603.2,16496.3 c -5.8,30.2 -9.6,61 -11.4,92.5 l -16,282.9 c -21.6,-13.2 -34.8,-19.1 -34.8,-19.1 -304.5,-81.6 -598.2,-137.2 -876.1,-172.8 -303.5,-38.7 -588.7,-54 -849.5,-54 -363.7,0 -680.3,29.7 -934.2,66.9 -8.4,54.1 -13.3,108.6 -18.3,163.1 -5.9,58.5 -11.8,117 -13.5,175.8 -6.6,115.4 -9,231 -6.9,346.7 207.5,-46.4 526.6,-103.1 927.1,-127.8 l 63.5,-40.2 c 0,0 26.8,9.9 64.6,33.5 89.9,-3.8 183.3,-5.9 280.1,-5.9 416.5,0 894.7,39 1410.8,150.4 69.4,15 139.6,31.3 210.4,49 l 13.8,-244.7 c 3.8,-67.8 15.6,-133.3 34.2,-195.7 0,-0.1 0.1,-0.2 0.1,-0.3 0.1,-0.4 0.2,-0.6 0.3,-1 16.8,-56.2 39.5,-110.3 67.5,-161.7 26.9,-49.2 58.5,-95.5 94.2,-138.2 -137.2,-63.1 -272.5,-129.7 -405.9,-199.4"
         style="fill:#cdc6d0;fill-opacity:1;fill-rule:nonzero;stroke:none"
         id="path114" />
      <path
         d="m 15881.2,16692.7 c -33,4.8 -64.8,9.8 -95.6,14.8 -70.8,11.3 -135.7,23.1 -194.3,34.9 23.3,221 42.2,449.4 56.2,684.5 45.4,-12.6 111.1,-29.8 195,-48.6 -2.1,-115.7 0.3,-231.3 6.9,-346.7 1.7,-58.8 7.6,-117.3 13.5,-175.8 5,-54.5 9.9,-109 18.3,-163.1"
         style="fill:#371b45;fill-opacity:1;fill-rule:nonzero;stroke:none"
         id="path116" />
      <path
         d="m 18542.1,18636.2 c 38.9,97.5 98.9,184.8 174.6,255.8 l 12.9,-228.2 c -51.8,-8.3 -114.8,-17.8 -187.5,-27.6"
         style="fill:#cdc6d0;fill-opacity:1;fill-rule:nonzero;stroke:none"
         id="path118" />
      <path
         d="m 16745.7,18583.1 c -238.7,21 -481.6,55.9 -720.5,109.6 21.9,95.7 45.1,191.3 69.1,287.1 81.4,-28.6 161,-66 238.5,-108.9 l 0.9,-0.5 c 13.7,-7.6 28.7,-11.3 43.6,-11.3 26.6,0 52.9,11.7 70.7,34 0.6,0.7 1.1,1.4 1.6,2.1 92.9,-77.1 193.6,-178.7 296.1,-312.1"
         style="fill:#cdc6d0;fill-opacity:1;fill-rule:nonzero;stroke:none"
         id="path120" />
      <path
         d="m 16025.2,18692.7 c -41.4,9.3 -82.8,19.2 -123.9,29.6 l 57.8,296.2 c 19.5,-4.5 38.9,-9.4 58.4,-14.6 25.7,-7.1 51.4,-15.2 76.8,-24.1 -24,-95.8 -47.2,-191.4 -69.1,-287.1"
         style="fill:#371b45;fill-opacity:1;fill-rule:nonzero;stroke:none"
         id="path122" />
      <path
         d="m 16833.1,17210.3 -63.5,40.2 c 41.8,-2.6 84.6,-4.8 128.1,-6.7 -37.8,-23.6 -64.6,-33.5 -64.6,-33.5"
         style="fill:#a79bad;fill-opacity:1;fill-rule:nonzero;stroke:none"
         id="path124" />
      <path
         d="m 22986,16719.6 -3283.2,-185.7 c -388.6,-22.1 -724.8,277.9 -747,667 l -98.7,1747.1 c -19.3,340.6 208.5,640.5 526.6,724.6 45,12.2 91.9,19.5 140.4,22.3 l 3282.7,185.8 c 389.1,22.1 725.3,-277.9 746.9,-667 l 78.6,-1383.8 20.7,-363.4 c 22.1,-389 -278.5,-724.8 -667,-746.9"
         style="fill:#ffffff;fill-opacity:1;fill-rule:nonzero;stroke:none"
         id="path126" />
      <path
         d="m 22939.3,16873.5 c -97.3,55.2 -197.8,104.8 -300.8,148.3 -349.7,150.2 -726,228.4 -1099.6,248.9 -70.8,4.1 -141.4,6.1 -211.9,6.1 -302.7,0 -602.8,-36.5 -894.9,-97.5 -149.8,-31.4 -297.6,-69.1 -443.6,-112 -28.7,62.8 -45.7,130.9 -49.6,201.6 l -87.6,1547.8 c 52.8,-175 115,-333 190.4,-473.9 -12.5,-63.9 -17.6,-131.3 -14,-200.7 9,-177.9 72.5,-343.3 178.9,-465.7 106.2,-122.3 242.6,-188.7 386.5,-188.7 7.9,0 15.9,0.2 23.9,0.6 l 255.7,13 c 62.9,3.2 119.1,31.4 158.6,75.1 237.7,-63 518.8,-94.6 853,-94.6 76.3,0 155,1.7 237,5 642.1,26 1077.1,132.8 1371.5,270 l 16.9,-298.4 c 8.5,-149.8 -42.4,-294.5 -143.2,-407.4 -73.4,-82.2 -166.4,-140 -269.4,-168.6 l -157.8,-8.9"
         style="fill:#cdc6d0;fill-opacity:1;fill-rule:nonzero;stroke:none"
         id="path128" />
      <path
         d="m 22847.5,19738.5 c -10.8,0 -21.5,-0.3 -32.3,-1 l -3283,-185.8 c -149.7,-8.4 -287.7,-75.3 -388.6,-188.2 -100.8,-112.9 -151.6,-257.5 -143.1,-407.3 l 98.8,-1747.4 c 17.6,-310.8 283.4,-548.6 595.6,-531.9 l 3283,185.9 c 149.8,8.4 287.8,75.3 388.6,188.2 100.8,112.9 151.7,257.6 143.2,407.4 l -98.9,1747.4 c -8.5,149.8 -75.3,287.8 -188.3,388.6 -104.8,93.5 -236.9,144.1 -375,144.1 M 19703,16533.7 h 0.5 -0.5 m -40.4,-144.6 c -447.8,0 -824.2,350.9 -849.8,803.5 L 18714,18940 c -12.9,226.3 63.7,444.6 215.6,614.6 151.8,170.1 360.1,270.9 586.4,283.7 l 3282.9,185.8 c 226.5,12.8 444.6,-63.8 614.8,-215.6 170.1,-151.9 270.8,-360.2 283.6,-586.5 l 98.9,-1747.4 c 12.8,-226.3 -63.8,-444.7 -215.6,-614.7 -151.9,-170.1 -360.2,-270.8 -586.5,-283.6 l -3283,-185.9 c -16.2,-0.9 -32.5,-1.3 -48.5,-1.3"
         style="fill:#371b45;fill-opacity:1;fill-rule:nonzero;stroke:none"
         id="path130" />
      <path
         d="m 23117.1,16740 c -42.1,-11.3 -85.6,-18 -131,-20.4 l -3283.2,-185.7 c -284.8,-16 -541.4,140.4 -666.8,379 -45.7,86.7 -74,184.2 -79.7,287.9 l -44.2,776.2 -14.6,256.1 -40.4,714.9 c -22.1,389.1 278.4,724.8 667,746.9 l 709.4,40 c -323.5,-80.2 -556.2,-382.5 -537,-726.6 l 53.2,-943.7 45.6,-803.9 c 22.1,-388.5 358.4,-689.1 747,-667 l 2574.7,146.3"
         style="fill:#ffffff;fill-opacity:1;fill-rule:nonzero;stroke:none"
         id="path132" />
      <path
         d="m 19289,16818.8 c -0.4,0.4 -0.9,0.8 -1.3,1.2 -113,100.9 -179.8,238.9 -188.2,388.7 l -22.2,391.4 c 35.7,39.5 72,88.8 104,149.5 18.8,35.7 36.1,75.4 50.9,119.4 48.3,-22.6 101,-36.8 158,-39.2 3.6,-0.1 7.2,-0.2 10.8,-0.2 74.5,0 146.3,34.2 213.6,89.8 l 37.8,-666.6 c 5.3,-95.1 26.2,-187.1 61.2,-273.1 -110.9,-37.9 -220.6,-78.7 -329.2,-121.6 -31.8,-12.9 -63.7,-26 -95.4,-39.3"
         style="fill:#cdc6d0;fill-opacity:1;fill-rule:nonzero;stroke:none"
         id="path134" />
      <path
         d="m 19725.8,19562.8 -193.5,-10.9 c -310.9,-17.8 -549.5,-285 -531.7,-595.7 l 98.9,-1747.5 c 8.4,-149.8 75.2,-287.8 188.2,-388.7 112.9,-100.8 257.6,-151.9 406.9,-143 l 216.4,12.2 c -155.1,149.7 -246.6,348.5 -258.6,563.6 l -98.9,1747.2 c -11.8,208.2 53.1,405.9 172.3,562.8 m -64,-3173.7 c -208.4,0 -407.5,76 -565.2,216.9 -170.3,151.9 -271,360.2 -283.6,586.6 l -98.9,1747.3 c -26.8,468.6 333,871.7 801.9,898.5 l 709.3,40 42.7,-282.5 c -263.3,-65.4 -443.3,-309.2 -428,-579.7 l 98.9,-1747.3 c 8.3,-149.8 75.2,-287.8 188.1,-388.7 113,-100.8 257.3,-151.9 407.1,-143.1 l 2575,146 44.3,-282.1 c -52.4,-13.7 -106.2,-22 -160.1,-24.7 L 19711,16390.5 c -16.5,-1 -32.9,-1.4 -49.2,-1.4"
         style="fill:#371b45;fill-opacity:1;fill-rule:nonzero;stroke:none"
         id="path136" />
      <path
         d="m 21041.4,18193.6 c 3.3,-64.7 -61,-591 -61,-591 0,0 -165.3,-8.4 -368.3,-18.7 -253.5,-12.9 -472.4,239.1 -488.9,563 -16.4,323.8 175.8,596.8 429.3,609.7 171.1,8.7 368.2,18.8 368.2,18.8 0,0 115.4,-476.5 120.7,-581.8"
         style="fill:#3ba1da;fill-opacity:1;fill-rule:nonzero;stroke:none"
         id="path138" />
      <path
         d="m 20592.5,17679 c -88.3,0 -172.7,43.7 -241.5,122.8 -78.4,90.3 -125.4,214.6 -132.2,349.9 -13.8,270.7 138.1,499.2 338.5,509.4 l 117,5.9 c -74.9,-69.4 -131.7,-167.7 -161.2,-281.7 -0.6,-2.5 -1.2,-4.8 -1.8,-7.3 0,0.1 -0.1,0.2 -0.1,0.2 -6.9,-28 -12.2,-56.9 -15.7,-86.5 -4.9,-40.8 -6.4,-83 -4.3,-126.1 2.2,-42 7.5,-82.7 16,-121.6 0,0.2 0.1,0.5 0.1,0.7 33.3,-152.8 112.8,-280.9 216.9,-359.3 l -116.9,-6 c -5,-0.2 -9.9,-0.4 -14.8,-0.4"
         style="fill:#3a72a6;fill-opacity:1;fill-rule:nonzero;stroke:none"
         id="path140" />
      <path
         d="m 20816.4,18674.2 -1.9,-0.1 -257.2,-13 c -200.4,-10.2 -352.3,-238.7 -338.5,-509.4 6.8,-135.3 53.8,-259.6 132.2,-349.9 72.6,-83.6 162.6,-127.5 256.3,-122.4 l 255.7,13 c 18.5,0.9 33.5,14.9 35.7,33.2 36,304.3 47.9,439.7 47.2,463.3 -1,17.9 -10.4,103.5 -92.6,456 -4,17.2 -19.4,29.3 -36.9,29.3 m -223.3,-1186.5 c -143.9,0 -280.3,66.4 -386.5,188.7 -106.4,122.4 -169.9,287.8 -178.9,465.7 -19.1,376 214.1,694.5 520,710.1 l 257.1,13 c 109.3,5.9 209.6,-68.7 234.9,-176.8 61.4,-263.9 94.2,-428.7 97.3,-490 0.7,-15 3,-61.2 -48.3,-495.2 -13.1,-111.3 -103.9,-196.2 -216,-201.9 l -255.7,-13 c -8,-0.4 -16,-0.6 -23.9,-0.6"
         style="fill:#371b45;fill-opacity:1;fill-rule:nonzero;stroke:none"
         id="path142" />
      <path
         d="m 21409.6,18212.3 c 16.5,-323.8 -175.7,-596.8 -429.2,-609.7 -253.6,-12.9 -472.5,239.2 -488.9,563 -16.5,323.9 175.7,596.8 429.2,609.8 253.6,12.8 472.5,-239.3 488.9,-563.1"
         style="fill:#3ba1da;fill-opacity:1;fill-rule:nonzero;stroke:none"
         id="path144" />
      <path
         d="m 20507.2,18044 c -8.5,38.9 -13.8,79.6 -16,121.6 -2.1,43.1 -0.6,85.3 4.3,126.1 -4.8,-40.8 -6.3,-83 -4.2,-126.1 2.1,-41.6 7.5,-82.1 16,-120.9 0,-0.2 -0.1,-0.5 -0.1,-0.7 m 4.1,334 v 0 c 0.6,2.5 1.2,4.8 1.8,7.3 -0.6,-2.4 -1.2,-4.9 -1.8,-7.3"
         style="fill:#c4d4e4;fill-opacity:1;fill-rule:nonzero;stroke:none"
         id="path146" />
      <path
         d="m 21410.5,18158.6 c 0.4,17.8 0.1,35.7 -0.8,53.8 -0.1,2.8 -0.3,5.6 -0.5,8.4 0.2,-2.8 0.4,-5.6 0.5,-8.4 1,-18.1 1.2,-36.1 0.8,-53.8 m -18.6,182.5 c -2.4,10.6 -5.1,21 -8,31.3 -38.8,140.2 -117.2,256.4 -217,327.5 107.1,-76.3 189.7,-204.5 225,-358.8"
         style="fill:#ffffff;fill-opacity:1;fill-rule:nonzero;stroke:none"
         id="path148" />
      <path
         d="m 20567.1,18259.9 c -21.9,36.3 -40.7,75.9 -55.8,118.1 0.6,2.4 1.2,4.9 1.8,7.3 57,219.3 214.6,380.1 407.8,389.9 6.1,0.3 12.3,0.5 18.5,0.5 81.8,0 159.6,-27.5 227.5,-75.8 99.8,-71.1 178.2,-187.3 217,-327.5 -4.6,16.6 -9.8,32.9 -15.6,48.7 -10.7,-43.4 -25.4,-84.6 -43.4,-122.9 -86.9,144.1 -223.1,236.6 -373,236.6 -6.3,0 -12.5,-0.2 -18.8,-0.5 -157.6,-8 -291.2,-116.1 -366,-274.4"
         style="fill:#c4e3f4;fill-opacity:1;fill-rule:nonzero;stroke:none"
         id="path150" />
      <path
         d="m 21175.3,17669.8 c 131.5,89.8 221.9,260.3 233.9,458.6 0.7,10 1.1,20.1 1.3,30.2 -4.1,-211.1 -97,-394.6 -235.2,-488.8 m 233.9,551 c -2.5,41.5 -8.4,81.7 -17.3,120.3 9,-38.6 14.8,-78.9 17.3,-120.3"
         style="fill:#b9afbe;fill-opacity:1;fill-rule:nonzero;stroke:none"
         id="path152" />
      <path
         d="m 20724.2,17685.4 c -104.1,78.4 -183.6,206.5 -216.9,359.3 0,0.2 0,0.4 0.1,0.6 33.1,-153.1 112.6,-281.4 216.8,-359.9 v 0 m -228.7,606.3 c 3.5,29.6 8.8,58.5 15.7,86.5 0,0 0.1,-0.1 0.1,-0.2 -6.9,-27.9 -12.2,-56.8 -15.8,-86.3"
         style="fill:#395484;fill-opacity:1;fill-rule:nonzero;stroke:none"
         id="path154" />
      <path
         d="m 20785.6,17646.5 c -21.3,11 -41.8,24.1 -61.4,38.9 v 0 c 19.6,-14.8 40.2,-27.9 61.4,-38.9"
         style="fill:#371b45;fill-opacity:1;fill-rule:nonzero;stroke:none"
         id="path156" />
      <path
         d="m 20961.4,17602.3 c -61.8,0 -121.2,15.7 -175.8,44.2 -21.2,11 -41.8,24.1 -61.4,38.9 -104.2,78.5 -183.7,206.8 -216.8,359.9 8.6,77.6 29.3,150.2 59.7,214.6 86.9,-144 223.2,-236.3 373,-236.3 6.3,0 12.6,0.2 19,0.5 157.3,8.2 291,116 365.8,274.1 36.6,-60.8 64.5,-130.8 81,-206.9 1.4,12.2 2.5,24.6 3.3,37.1 -12,-198.3 -102.4,-368.8 -233.9,-458.6 -58,-39.6 -124,-63.5 -194.8,-67 -6.4,-0.4 -12.8,-0.5 -19.1,-0.5"
         style="fill:#3a72a6;fill-opacity:1;fill-rule:nonzero;stroke:none"
         id="path158" />
      <path
         d="m 20507.3,18044.7 c -8.5,38.8 -13.9,79.3 -16,120.9 -2.1,43.1 -0.6,85.3 4.2,126.1 3.6,29.5 8.9,58.4 15.8,86.3 v 0 c -16.4,-66.4 -23.6,-138 -19.8,-212.4 2.1,-41.4 7.5,-81.7 15.9,-120.3 -0.1,-0.2 -0.1,-0.4 -0.1,-0.6"
         style="fill:#9393ad;fill-opacity:1;fill-rule:nonzero;stroke:none"
         id="path160" />
      <path
         d="m 21409.2,18128.4 c 1.7,27.5 1.9,55.5 0.4,83.9 -2.8,55.8 -11.7,109.5 -25.7,160.1 2.9,-10.3 5.6,-20.7 8,-31.3 8.9,-38.6 14.8,-78.8 17.3,-120.3 0.2,-2.8 0.4,-5.6 0.5,-8.4 0.9,-18.1 1.2,-36 0.8,-53.8 -0.2,-10.1 -0.6,-20.2 -1.3,-30.2"
         style="fill:#b9afbe;fill-opacity:1;fill-rule:nonzero;stroke:none"
         id="path162" />
      <path
         d="m 20507.4,18045.3 c -8.4,38.6 -13.8,78.9 -15.9,120.3 -3.8,74.4 3.4,146 19.8,212.4 15.1,-42.2 33.9,-81.8 55.8,-118.1 -30.4,-64.4 -51.1,-137 -59.7,-214.6 m 898.5,46 c -16.5,76.1 -44.4,146.1 -81,206.9 18,38.3 32.7,79.5 43.4,122.9 5.8,-15.8 11,-32.1 15.6,-48.7 14,-50.6 22.9,-104.3 25.7,-160.1 1.5,-28.4 1.3,-56.4 -0.4,-83.9 -0.8,-12.5 -1.9,-24.9 -3.3,-37.1"
         style="fill:#939db7;fill-opacity:1;fill-rule:nonzero;stroke:none"
         id="path164" />
      <path
         d="m 20939.2,18680.1 c -4.6,0 -9.1,-0.1 -13.7,-0.3 -92.5,-4.7 -178.7,-57.2 -242.4,-147.8 -68.9,-97.7 -103,-226.2 -96.1,-361.5 6.9,-135.4 53.8,-259.6 132.3,-349.9 72.5,-83.6 161.9,-127.4 256.2,-122.4 92.6,4.7 178.8,57.1 242.5,147.7 68.9,97.8 103,226.2 96.1,361.6 -6.9,135.3 -53.8,259.6 -132.3,349.9 -69,79.5 -154.7,122.7 -242.6,122.7 z m 22.1,-1173.6 c -143.9,0 -280.3,66.3 -386.5,188.7 -106.3,122.3 -169.9,287.7 -178.9,465.6 -9,177.9 37.4,348.8 130.7,481.4 98.4,139.7 236.6,220.9 389.3,228.7 152.7,7.5 298.4,-59.1 410.4,-188.1 106.3,-122.4 169.8,-287.8 178.9,-465.7 9,-177.8 -37.4,-348.8 -130.7,-481.3 -98.4,-139.8 -236.6,-221 -389.3,-228.7 -7.9,-0.4 -15.9,-0.6 -23.9,-0.6"
         style="fill:#371b45;fill-opacity:1;fill-rule:nonzero;stroke:none"
         id="path166" />
      <path
         d="m 21964.6,16530.9 c -77,0 -140.8,61.2 -143.3,138.8 l -29.1,885 c -8.3,254 110.3,493.4 317.3,640.5 131.5,93.4 204.9,245.4 196.4,406.5 l -66.2,1246.4 c -4.2,79.1 56.5,146.7 135.7,150.9 77.3,4.8 146.6,-56.5 150.9,-135.7 l 66.2,-1246.4 c 13.7,-259.9 -104.6,-504.9 -316.7,-655.7 -128.4,-91.2 -202,-239.6 -196.8,-397.1 l 29.1,-884.9 c 2.7,-79.2 -59.5,-145.6 -138.7,-148.2 -1.6,0 -3.2,-0.1 -4.8,-0.1"
         style="fill:#371b45;fill-opacity:1;fill-rule:nonzero;stroke:none"
         id="path168" />
      <path
         d="m 15766.8,18758.9 c 0,0 -419,-149.3 -405,-700.1 11,-431.5 211.8,-609.9 211.8,-609.9 0,0 1460.2,-485.1 3331.4,15.9 0,0 351.1,156.1 374.9,670.1 9,196.3 -111,494.3 -386.3,557.8 0,0 -1702.6,-346.9 -3126.8,66.2"
         style="fill:#ffffff;fill-opacity:1;fill-rule:nonzero;stroke:none"
         id="path170" />
      <path
         d="m 18588.6,17388.3 c 69.4,15 139.6,31.4 210.4,49.1 v -0.1 c -70.8,-17.7 -141,-34 -210.4,-49"
         style="fill:#a79bad;fill-opacity:1;fill-rule:nonzero;stroke:none"
         id="path172" />
      <path
         d="m 18799,17437.3 v 0.1 c 0.1,0 0,0 0.1,0 v 0 c -0.1,0 0,0 -0.1,-0.1"
         style="fill:#371b45;fill-opacity:1;fill-rule:nonzero;stroke:none"
         id="path174" />
      <path
         d="m 19077.3,17600.1 v 0 c 35.6,39.5 72,88.8 104,149.5 -32,-60.7 -68.3,-110 -104,-149.5"
         style="fill:#a79bad;fill-opacity:1;fill-rule:nonzero;stroke:none"
         id="path176" />
      <path
         d="m 18799.1,17437.4 v 0 c 35.1,8.8 70.4,17.9 105.9,27.4 0,0 83.8,37.3 172.3,135.3 v 0 c -88.5,-98 -172.4,-135.3 -172.4,-135.3 -35.4,-9.5 -70.7,-18.6 -105.8,-27.4"
         style="fill:#371b45;fill-opacity:1;fill-rule:nonzero;stroke:none"
         id="path178" />
      <path
         d="m 15408.6,17748.9 c -25,83.8 -43.7,186.5 -46.8,309.9 -0.1,3.5 -0.2,7 -0.2,10.4 0,-3.4 0.1,-6.9 0.2,-10.4 3.2,-123.3 21.8,-225.9 46.8,-309.6 0,-0.1 0,-0.2 0,-0.3"
         style="fill:#a79bad;fill-opacity:1;fill-rule:nonzero;stroke:none"
         id="path180" />
      <path
         d="m 15488.6,17561.5 c -27.3,46.6 -56.5,108.6 -80,187.4 0,0.1 0,0.2 0,0.3 23.6,-78.8 52.8,-140.8 80,-187.5 0,-0.1 0,-0.2 0,-0.2"
         style="fill:#371b45;fill-opacity:1;fill-rule:nonzero;stroke:none"
         id="path182" />
      <path
         d="m 15573.4,17449.1 v 0 c 0,0 -39.8,35.2 -84.8,112.4 0,0 0,0.1 0,0.2 43.4,-74.5 81.9,-110 84.8,-112.6"
         style="fill:#371b45;fill-opacity:1;fill-rule:nonzero;stroke:none"
         id="path184" />
      <path
         d="m 17178.1,17238 c -966.4,0 -1600.7,209.7 -1604.7,211.1 -2.9,2.6 -41.4,38.1 -84.8,112.6 -27.2,46.7 -56.4,108.7 -80,187.5 -25,83.7 -43.6,186.3 -46.8,309.6 -0.1,3.5 -0.2,7 -0.2,10.4 -1.9,126.1 18.9,230.8 52.4,317.5 53.1,-290.7 192.2,-413.9 192.2,-413.9 0,0 635.3,-211 1604.6,-211 500.4,0 1089.9,56.2 1726.9,226.7 0,0 201.9,89.9 309.3,357 25.4,-73.2 35.5,-147.4 32.7,-210.9 -7.4,-161.6 -47.2,-287.9 -98.4,-385 -32,-60.7 -68.4,-110 -104,-149.5 -88.5,-98 -172.3,-135.3 -172.3,-135.3 -35.5,-9.5 -70.8,-18.6 -105.9,-27.4 -0.1,0 0,0 -0.1,0 -70.8,-17.7 -141,-34.1 -210.4,-49.1 -515.9,-111.3 -994.1,-150.3 -1410.5,-150.3"
         style="fill:#cdc6d0;fill-opacity:1;fill-rule:nonzero;stroke:none"
         id="path186" />
      <path
         d="m 15652.5,17574.9 c 225.6,-65.6 1557.1,-411.4 3201.5,24.8 43.9,24.1 265.1,163.6 282.5,541.8 6.4,137.4 -76.7,346.4 -248.6,403.9 -253.5,-47.9 -1774.3,-308 -3108.8,60.9 -84.8,-47.1 -282.7,-194.7 -273.9,-543.8 7.4,-285.6 105.7,-436.3 147.3,-487.6 z m 1519.9,-482 c -965.6,0 -1604,206.6 -1644.1,219.8 l -28,9.4 -22.1,19.5 c -25.3,22.6 -247.5,233.6 -259.9,713.6 -16.4,647.2 479.2,831.4 500.3,838.9 l 43.7,15.6 44.5,-13 c 1372.4,-398.1 3041.5,-66.8 3058.2,-63.4 l 30.5,6.2 30.4,-7 c 361.6,-83.4 508.5,-462.1 497.4,-704.2 -27.6,-595.7 -442.4,-786.8 -460.1,-794.6 l -21.1,-7.5 c -654.8,-175.3 -1258.2,-233.3 -1769.7,-233.3"
         style="fill:#371b45;fill-opacity:1;fill-rule:nonzero;stroke:none"
         id="path188" />
      <path
         d="m 26211.8,13053.1 c -360.4,-2173.3 -4036.8,-2880.9 -4732.3,-2017.9 -758.9,941.4 -528.3,2418.4 -1068.8,2620.2 -952.6,355.8 -3439.1,-376.6 -4459.3,2138.2 -79.7,195.9 -150,411.6 -210.4,649 l 2704.4,-133.8 c 1173.9,596 3118.4,1338.3 4640.8,255 848.7,-603.6 1114.9,-2213.9 1040.1,-3066.1 -11.7,-133.3 -31.5,-247.7 -59,-337.4 0,0 2436.8,1655.8 2144.5,-107.2"
         style="fill:#ffffff;fill-opacity:1;fill-rule:nonzero;stroke:none"
         id="path190" />
      <path
         d="m 21686,11083.1 c -3.6,3 -7.2,5.9 -10.8,8.8 -12.3,11.3 -24.8,22.4 -35.7,34.2 -10.3,12 -20.6,22.3 -34.1,41.1 -207.9,264.2 -341.6,589 -435.8,930.5 -47.5,171.1 -86,346.9 -122.7,526.3 -37.5,179.4 -71.4,362.1 -122.4,550.6 -26.1,94.5 -56.1,190.5 -101.5,289.1 -46.2,97 -107.2,203.6 -218,287.8 -28.7,19.6 -56.7,40 -89.6,53.8 -15.3,7 -33.5,15.9 -46.9,20.5 l -37.9,12.3 -75.9,24 -74.6,17.6 c -99.6,23.1 -196.4,36 -292.4,47.6 -191.3,21.3 -377.5,30.4 -561.6,40.6 -184,10 -365.7,20.2 -545.7,35.5 -358.9,32 -712,85.9 -1044.3,194.4 -332.7,106.2 -640.9,270.6 -904.1,491.2 -204.6,176 -382.6,383.4 -529.4,614.1 433.9,-386.9 1076.8,-755.4 1976.6,-807.3 142.3,-8.1 279.6,-11.6 412.1,-11.6 347.6,0 661.5,23.7 942.9,47.4 281.4,23.7 530.3,47.3 747.8,47.3 366.5,0 644.1,-67.1 838.5,-314.5 388.8,-494.2 121.7,-1787.4 789.2,-2084.2 56.6,-25.1 118.1,-36.7 183,-36.7 503.8,0 1225.4,692.7 1612.2,1107.4 -3,-12.8 -6.3,-25.4 -9.7,-37.6 l -41.8,-146 c -483.8,-727.2 -901.3,-1228.7 -1329,-1557 -0.1,-0.1 -0.1,-0.1 -0.2,-0.1 -0.8,-0.6 -1.5,-1.2 -2.3,-1.8 -0.1,-0.1 -0.3,-0.2 -0.4,-0.3 -1.1,-0.9 -2.3,-1.8 -3.4,-2.6 -0.6,-0.4 -1.1,-0.9 -1.7,-1.3 -0.4,-0.3 -0.9,-0.7 -1.3,-1 -1,-0.8 -2,-1.6 -3,-2.3 -0.1,-0.1 -0.2,-0.1 -0.2,-0.1 -1.1,-0.9 -2.2,-1.7 -3.3,-2.5 -0.1,-0.1 -0.2,-0.2 -0.3,-0.3 -263.9,-199.8 -532,-333.9 -822.3,-414.9"
         style="fill:#cdc6d0;fill-opacity:1;fill-rule:nonzero;stroke:none"
         id="path192" />
      <path
         d="m 18404.7,16389.3 c 315.6,175.1 642.5,332.3 979.7,468.8 338.1,133.8 687.4,245.5 1047.7,321.2 360.1,75.2 732.4,113.1 1106.8,91.4 373.6,-20.5 749.9,-98.7 1099.6,-248.9 175.1,-73.9 343.1,-165.5 500,-272.6 19.8,-13.3 39.5,-25.6 59.4,-39.8 l 60.2,-45.8 c 41.2,-29.5 76.7,-64.4 114.4,-97.2 37.1,-33.5 70.1,-70.1 105.2,-105.2 32.1,-37.1 64.8,-73.9 95.4,-112 121.5,-153.1 221.2,-318.2 305.7,-488.2 84.7,-170.1 153.6,-345.5 209.9,-523.9 112.8,-356.5 182.9,-721.9 218.3,-1091.4 15.9,-184.9 22.1,-371 16.2,-559.1 -3.2,-94 -9.4,-188.5 -21.9,-284.5 -13,-96.1 -29.4,-192.4 -61.7,-294.3 l -273.5,201.8 0.3,0.1 c 161.7,107.5 321,202.4 487.7,294.3 166,91 336.3,175.7 514.2,250.1 178.2,73.4 363.1,138.6 567.3,173.4 102.5,16.2 210.5,25.2 327.4,10.9 58.4,-7.8 119,-21.9 179.2,-46.5 60,-24.4 119.8,-60.6 169.8,-107.9 50.5,-46.9 90.6,-102.9 120.2,-160.3 30.1,-57.8 47.2,-116.1 60.9,-173.3 24,-114 25.9,-221.9 19.6,-324.9 -14.1,-204.3 -56.5,-398.9 -124,-588.4 -134.6,-378.3 -369.9,-711.9 -652.3,-981 -282.7,-270.7 -608.9,-485.3 -952.4,-655.2 -343.9,-170.4 -706.6,-296.6 -1078.6,-383.5 -372.4,-85.3 -755.1,-132.7 -1145.1,-116.8 -195,9.6 -392.3,34.1 -589.3,93.9 -98.4,30.3 -196.9,69.9 -292.1,126 -47.8,27.1 -94,61 -138.5,98 -21.8,19.5 -43.6,39.4 -63.9,61.4 -20.3,22.4 -41.2,46 -54.5,64.8 -249.4,317.5 -398.3,689.9 -499.6,1056.6 -51,184 -91.3,368.5 -128.4,550 -37.8,181.2 -71.7,361.2 -117,528.3 -22.9,83.2 -48.8,163.3 -80.7,232.1 -31.7,68.4 -69.9,124.5 -107.6,151.6 -9.8,5.5 -18.3,13.9 -28.7,16.9 -5.7,2.2 -7.9,4.7 -16.2,7.6 l -27.9,8.7 -55.8,17.9 -59.9,13.9 c -79.9,18.7 -166.1,30.5 -252.9,41 -174.9,19.5 -357.1,28.6 -540.8,38.8 -183.9,9.9 -370.2,20.4 -557.4,36.4 -374.3,33.4 -754.9,90.1 -1124.2,210.4 -369.2,117.8 -723.7,305.3 -1025.3,558.7 -299,256.4 -545,570.5 -727.1,911.9 -182.7,341.7 -311.2,705 -406.2,1072.6 -24.8,96.4 33.1,194.7 129.5,219.5 96.3,24.9 194.6,-33 219.4,-129.4 l 0.4,-1.4 c 89.2,-345.5 209,-681.6 374.1,-990.3 164.8,-308.9 382.1,-583.6 642.3,-807.5 263.2,-220.6 571.4,-385 904.1,-491.2 332.3,-108.5 685.4,-162.4 1044.3,-194.4 180,-15.3 361.7,-25.5 545.7,-35.5 184.1,-10.2 370.3,-19.3 561.6,-40.6 96,-11.6 192.8,-24.5 292.4,-47.6 l 74.6,-17.6 75.9,-24 37.9,-12.3 c 13.4,-4.6 31.6,-13.5 46.9,-20.5 32.9,-13.8 60.9,-34.2 89.6,-53.8 110.8,-84.2 171.8,-190.8 218,-287.8 45.4,-98.6 75.4,-194.6 101.5,-289.1 51,-188.5 84.9,-371.2 122.4,-550.6 36.7,-179.4 75.2,-355.2 122.7,-526.3 94.2,-341.5 227.9,-666.3 435.8,-930.5 13.5,-18.8 23.8,-29.1 34.1,-41.1 10.9,-11.8 23.4,-22.9 35.7,-34.2 26.5,-21.6 54.4,-43 87,-61.2 63.5,-37.5 136.9,-67.9 214.5,-91.7 155.9,-47.6 327.1,-70.1 499.7,-78.4 346.9,-14.4 702.5,28.4 1047.7,107.9 345.5,80.6 683.5,198.3 1000,355.4 316.6,156.3 612.7,352.5 862.7,592.1 250.2,238.5 449.5,524.9 562.5,842.2 56.6,157.3 92.6,326.4 103.8,489.6 5.2,80.7 2.1,158.6 -11.9,225.2 -8.1,32.1 -17,62.9 -30,86.9 -12.7,24.3 -27.2,43.9 -44.2,60 -32.8,31.8 -83.8,51.8 -149.9,61.1 -66.4,8.4 -144,3.6 -223.2,-9.1 -159.6,-26.9 -325.3,-83.4 -487.1,-150.5 -162.3,-67.8 -322.4,-147.2 -479.4,-233.4 -156.1,-85.8 -313.5,-180 -458.6,-276.4 l -0.1,-0.1 -415.2,-293 141.7,494.8 c 19.8,69.5 32,150.7 40.4,232.2 9.2,81.7 13.4,166.1 14.9,250.9 2.5,169.9 -5.9,342.1 -23.6,513.5 -33.6,343 -100.1,684.6 -204.1,1010.5 -105.4,324.2 -243.3,639.1 -443,897.5 -25,32 -51.5,62.3 -77.3,93.4 -28.1,28.3 -54.4,59 -83.6,85.7 -29.6,26.1 -57.3,55 -88.9,77.8 l -46.2,36.2 c -16.3,12 -34.5,23.7 -51.5,35.5 -137.3,97.2 -285,178.1 -437.7,247.7 -304.9,141.5 -638.1,221.4 -978,249.8 -340.6,30.3 -687.3,2.5 -1030.6,-51.5 -343.6,-56.5 -683,-149.9 -1016.3,-264.1 -334.3,-112.2 -660.6,-251.3 -983.5,-399.7 -45.1,-20.9 -98.8,-1.3 -119.6,43.9 -20,43 -2.6,93.9 38.1,116.7"
         style="fill:#371b45;fill-opacity:1;fill-rule:nonzero;stroke:none"
         id="path194" />
      <path
         d="m 26158,14088.8 c 0,0 -327.7,1007.2 -1467.8,841.4 -1056.8,-153.7 -1409.5,-1326.6 -1668.7,-1658.3"
         style="fill:#ffffff;fill-opacity:1;fill-rule:nonzero;stroke:none"
         id="path196" />
      <path
         d="m 25986.7,14033.1 -8.8,20.4 -11.6,25.3 c -8.1,17.1 -16.9,34.2 -26,51.3 -18.4,34.2 -38,68 -59.2,100.9 -42.3,65.6 -90.3,127.4 -143.5,182.7 -105.4,112 -230.1,199.9 -367.9,258 -137.9,58.4 -290.2,84.3 -447,85 -39.1,1 -78.8,-2.6 -118.4,-4.4 -39.4,-5.1 -80.5,-6.9 -118.5,-14.2 -77.9,-10.1 -153.2,-31 -227.4,-55.2 -296.3,-100.4 -551.2,-316.7 -760.6,-582.7 -106.3,-132.2 -202.1,-276.6 -296,-426 l -143.2,-227.1 c -49,-76.7 -98.6,-154.4 -166.1,-230.6 -33,-37.3 -90,-40.8 -127.3,-7.8 -33.2,29.4 -39.6,77.9 -17.3,114.5 l 2.7,4.2 c 40.5,66.5 77.7,145.9 115,225.6 37.3,80 73.5,162.6 113,244.3 78.4,163.9 166,327.4 270.8,484 52.2,78.4 109.6,154.4 171.9,227.5 62.2,73.2 128.8,144.2 203.2,208.3 74.1,64.2 152.6,125.1 237.8,177.5 85.2,52.1 175.3,97.8 269.7,133.5 94.3,34.8 191.5,64.6 290.5,81.4 98.3,18.9 195.9,27.6 296.6,29.8 200.2,4.2 408.5,-27.8 600.4,-109.5 192.5,-79.2 364.2,-206.1 499.9,-357.9 68.1,-76.1 127.5,-158.3 179.2,-244.7 25.7,-43.3 50.1,-87.4 71.5,-133.3 10.6,-23.1 20.8,-46.3 30.5,-70.3 l 14.2,-36.7 c 4.9,-13.2 8.5,-23.6 14.5,-42.3 30.4,-94.6 -21.6,-195.9 -116.1,-226.3 -88.8,-28.5 -183.5,15.6 -219.9,99.3 l -6.6,15.5"
         style="fill:#371b45;fill-opacity:1;fill-rule:nonzero;stroke:none"
         id="path198" />
      <path
         d="m 21479.5,11035.1 c 144.3,-233.3 302.3,-404.1 473.6,-462.6 868.3,-295.5 2989.6,329.8 3954.3,1812.4 413.5,636 442.2,1237.2 250.6,1703.9 -489.6,432.9 -1371.8,437.5 -2093.1,-696 -965.9,-1518.3 -1648.5,-2181.2 -2585.4,-2357.7"
         style="fill:#b2b2b2;fill-opacity:1;fill-rule:nonzero;stroke:none"
         id="path200" />
      <path
         d="m 21686.1,11083.1 c 0,0 0,0 -0.1,0 290.3,81 558.4,215.1 822.3,414.9 -263.8,-199.7 -532,-333.9 -822.2,-414.9"
         style="fill:#998a9f;fill-opacity:1;fill-rule:nonzero;stroke:none"
         id="path202" />
      <path
         d="m 21479.5,11035.1 c 70.2,13.3 139,29.2 206.5,48 0.1,0 0.1,0 0.1,0 -67.6,-18.8 -136.4,-34.8 -206.6,-48"
         style="fill:#371b45;fill-opacity:1;fill-rule:nonzero;stroke:none"
         id="path204" />
      <path
         d="m 22508.6,11498.3 c 1.1,0.8 2.2,1.6 3.3,2.5 -1.1,-0.8 -2.2,-1.7 -3.3,-2.5 m 3.5,2.6 c 1,0.7 2,1.5 3,2.3 -1.1,-0.8 -2,-1.5 -3,-2.3 m 4.3,3.3 c 0.6,0.4 1.1,0.9 1.7,1.3 -0.6,-0.5 -1.1,-0.9 -1.7,-1.3 m 5.1,3.9 c 0.1,0.1 0.3,0.2 0.4,0.3 -0.1,-0.1 -0.3,-0.2 -0.4,-0.3 m 2.7,2.1 c 0.1,0 0.1,0 0.2,0.1 l -0.2,-0.1"
         style="fill:#998a9f;fill-opacity:1;fill-rule:nonzero;stroke:none"
         id="path206" />
      <path
         d="m 26240.6,13178.7 c 0.1,0.5 0.2,1 0.3,1.6 -0.1,-0.6 -0.2,-1.1 -0.3,-1.6 m 0.5,2.6 c 2.6,14 5.1,27.8 7.4,41.7 0,0.1 0,0.1 0,0.1 -2.3,-13.9 -4.8,-27.8 -7.4,-41.8"
         style="fill:#371b45;fill-opacity:1;fill-rule:nonzero;stroke:none"
         id="path208" />
      <path
         d="m 22461.2,10501.1 c -195.2,0 -368,23.7 -508.1,71.4 -171.3,58.5 -329.3,229.3 -473.6,462.6 v 0 c 70.2,13.2 139,29.2 206.6,48 290.2,81 558.4,215.2 822.2,414.9 0.1,0.1 0.2,0.2 0.3,0.3 1.1,0.8 2.2,1.7 3.3,2.5 0,0 0.1,0.1 0.2,0.1 1,0.8 1.9,1.5 3,2.3 0.4,0.3 0.8,0.6 1.3,1 0.6,0.4 1.1,0.8 1.7,1.3 1.1,0.8 2.3,1.7 3.4,2.6 0.1,0.1 0.3,0.2 0.4,0.3 0.8,0.6 1.6,1.2 2.3,1.8 l 0.2,0.1 c 281.5,216.1 558.8,507.3 853.5,888.6 -66.9,-376.6 229.2,-633.4 770.3,-664.8 29.7,-1.7 59.6,-2.6 89.7,-2.6 767.3,0 1643.2,558.2 2010.6,1491.6 -2.3,-14 -4.8,-27.8 -7.4,-41.8 -0.1,-0.3 -0.2,-0.7 -0.2,-1 -0.1,-0.6 -0.2,-1.1 -0.3,-1.6 -48.6,-252.9 -155.3,-520 -333.2,-793.8 v 0 c -809.1,-1243.4 -2431.6,-1883.8 -3446.2,-1883.8"
         style="fill:#877d8c;fill-opacity:1;fill-rule:nonzero;stroke:none"
         id="path210" />
      <path
         d="m 21801,10916.8 c 90,-102.2 162.5,-145.7 213.9,-163.2 748.5,-254.7 2791.2,289.7 3732.1,1735.7 330,507.3 418.1,1032.6 250.5,1484.7 -190.6,152.9 -427.6,218.1 -672,183.5 -274.3,-38.7 -687.5,-220.5 -1099.2,-867.4 -927.2,-1457.6 -1594.4,-2121.4 -2425.3,-2373.3 z m 652.3,-605 c -214.5,0 -405.3,26.3 -561.8,79.6 -203.6,69.4 -391.5,247.1 -574.7,543.1 l -146.7,237.1 274,51.6 c 850.4,160.1 1493.9,754.7 2459.4,2272.2 489.9,770 1014.6,991.1 1368.6,1041 371.6,52.5 731.4,-55.6 1012.6,-304.2 l 33.4,-29.5 16.9,-41.2 c 238.5,-581.1 143.6,-1249.1 -267.2,-1880.8 -840.4,-1291.6 -2528.1,-1968.9 -3614.5,-1968.9"
         style="fill:#371b45;fill-opacity:1;fill-rule:nonzero;stroke:none"
         id="path212" />
      <path
         d="m 17282.4,23025.2 -372.9,-1692.2 -257.7,-1168.9 -268.4,-1218.4 c -132.9,89.6 -278.4,159.4 -433.4,200 -15.2,4 -30.6,7.6 -46.3,11.2 -1205.4,265.8 -1838.2,-1262.1 -1838.2,-1262.1 0,0 516.6,-328.8 573.8,-748.1 9.9,-72.6 6.3,-138.3 -6.8,-197.3 -60.3,-281.6 -327.9,-410.8 -327.9,-410.8 0,0 43.3,-440.1 -96.4,-904.9 -263,-874.3 -2342.7,-646.9 -2760.2,-395.5 -115.8,69.8 -266.7,340.5 -394.6,744.5 -333.8,1051.8 -514,3004.4 480.6,4644.4 852.7,1406.3 2206.2,2015.7 3385.5,2268.4 722.9,155.9 1380.5,177.1 1817.5,165.8 339.1,-8.1 545.4,-36.1 545.4,-36.1"
         style="fill:#ffffff;fill-opacity:1;fill-rule:nonzero;stroke:none"
         id="path214" />
      <path
         d="m 13924,18023 c -227.7,256.7 -289.1,630.2 -138.7,951.5 197.2,422.6 604,907.6 1442.2,1113.4 77.1,18.9 153.5,27.9 228.1,27.9 555.8,0 1010.1,-498.1 944.6,-1069.6 -92.8,69.7 -195.2,128.9 -304.7,176 -61.4,26.2 -125.7,49.2 -191.5,63.7 -32.7,7.3 -65.5,15.2 -98.6,21.8 l -100.9,14 c -46.2,4.5 -92.9,6.9 -139.8,6.9 -90.6,0 -181.7,-8.9 -270.8,-28.2 -135.2,-29.1 -266,-78.2 -386.1,-143.3 -240.8,-130.7 -443.3,-313.3 -606.9,-518.2 -81.3,-103.3 -156.5,-210.1 -222.1,-322.4 -33.4,-55.8 -64.5,-112.9 -94.4,-170.7 -14.9,-29 -29.7,-58 -43.9,-87.8 -5.7,-11.9 -11.1,-23.3 -16.5,-35"
         style="fill:#cdc6d0;fill-opacity:1;fill-rule:nonzero;stroke:none"
         id="path216" />
      <path
         d="m 12750.4,15192 c -52.7,0 -105.6,1 -158.4,2.8 -178.4,6 -357.1,24.2 -532.5,52.3 -87.4,14.7 -174.3,31.5 -258.2,52.7 -82.9,21.3 -166,47.1 -230.5,77.1 l -20.3,10.9 c -3.2,1.7 -7.5,3.6 -9.7,5.2 -1,1.3 -2,2.5 -3.2,3.6 -2.4,2.6 -4.5,2.8 -8.3,6.1 l -14.2,15.9 c -9.5,8.3 -20.3,24.6 -30.8,38.8 -10.9,13.3 -21.2,30.1 -31.5,47.3 -42.1,66.5 -79.5,145 -113.9,224.3 -18.8,44.3 -36.8,89.5 -53.8,135.2 249.1,-106.2 581.9,-187.3 1017.1,-187.3 18.8,0 37.8,0.2 57,0.5 1093.3,17.7 1508.3,371 1613.6,822.4 34,145.4 152.5,258.5 299.6,284.5 27.2,4.8 55.3,10.9 83.7,18.5 -9.9,-10.5 -20.4,-20.8 -31.2,-30.7 -12.9,-11.8 -26.6,-22.9 -40.6,-33.5 -7,-5.4 -14.3,-10.2 -21.3,-15.3 l -10.8,-7 -12.2,-8 c -7.7,-5.3 -15.2,-11.1 -22.4,-17.3 -58.3,-48.9 -93.1,-127.9 -89.9,-203.9 l 2.4,-68 c 0.9,-43 0.7,-86.5 -0.8,-130 -2.5,-87 -9.9,-174 -21.2,-259.9 -11.5,-86 -27.4,-171 -48.2,-254 -4.8,-20.9 -10.7,-41.4 -16.6,-61.8 -2.9,-9.9 -5.7,-21.4 -8.7,-30 l -9,-22.6 c -9.5,-31.3 -27,-58.8 -43.6,-87 -35.1,-55.4 -88.9,-103 -149.8,-145.5 -29.8,-22.1 -65,-39.8 -98.9,-58.8 -36.7,-16 -71.7,-34.5 -111.1,-47.6 -153.3,-58.5 -325,-91.2 -498.9,-110.5 -122.6,-13.8 -247.5,-19.4 -372.9,-19.4"
         style="fill:#cdc6d0;fill-opacity:1;fill-rule:nonzero;stroke:none"
         id="path218" />
      <path
         d="m 17258.1,22846.7 c -82.5,10.2 -175.9,17.7 -265,23.5 -90.3,5.3 -180.8,9.6 -271.7,11.4 -181.5,3.8 -363.6,2.7 -545.3,-6.6 -363.3,-17.3 -725.5,-59 -1081.7,-127.5 -710.9,-139.2 -1402.1,-387.7 -2005.3,-776.9 -301.2,-194.2 -579.2,-422.9 -824.6,-682.6 -245.9,-259.3 -457.4,-550.4 -636.8,-860.1 -176.8,-311.1 -320.5,-642 -422.9,-986.6 -103,-344.3 -172.1,-699.5 -207.1,-1058.8 -33,-359.5 -38.2,-722.6 -8.4,-1083.3 13.2,-180.4 36,-360.1 65.5,-538.2 29.1,-178.3 66.7,-355.1 113.7,-528.3 46.7,-173 102.2,-343.5 170.4,-503.7 34.4,-79.3 71.8,-157.8 113.9,-224.3 10.3,-17.2 20.6,-34 31.5,-47.3 10.5,-14.2 21.3,-30.5 30.8,-38.8 l 14.2,-15.9 c 3.8,-3.3 5.9,-3.5 8.3,-6.1 1.2,-1.1 2.2,-2.3 3.2,-3.6 2.2,-1.6 6.5,-3.5 9.7,-5.2 l 20.3,-10.9 c 64.5,-30 147.6,-55.8 230.5,-77.1 83.9,-21.2 170.8,-38 258.2,-52.7 175.4,-28.1 354.1,-46.3 532.5,-52.3 178.3,-6 357.1,-3 531.3,16.6 173.9,19.3 345.6,52 498.9,110.5 39.4,13.1 74.4,31.6 111.1,47.6 33.9,19 69.1,36.7 98.9,58.8 60.9,42.5 114.7,90.1 149.8,145.5 16.6,28.2 34.1,55.7 43.6,87 l 9,22.6 c 3,8.6 5.8,20.1 8.7,30 5.9,20.4 11.8,40.9 16.6,61.8 20.8,83 36.7,168 48.2,254 11.3,85.9 18.7,172.9 21.2,259.9 1.5,43.5 1.7,87 0.8,130 l -2.4,68 c -3.2,76 31.6,155 89.9,203.9 7.2,6.2 14.7,12 22.4,17.3 l 12.2,8 10.8,7 c 7,5.1 14.3,9.9 21.3,15.3 14,10.6 27.7,21.7 40.6,33.5 25.7,23.5 49.1,48.7 67.9,75.5 38.1,53.6 61.9,110.9 68.5,172.7 4.7,30.6 2.7,63.1 -0.4,96.1 -5.7,32.2 -11.1,64 -24,96.9 -23.3,65.4 -61.2,131.7 -108.5,195.3 -47.1,63.6 -104.2,124.2 -165.8,180.9 -31,28.2 -63,55.8 -96.3,81.6 -16.7,12.9 -33.3,25.7 -50.3,37.7 -16.1,11.9 -35.3,24.9 -47.8,33 l -2.3,1.5 c -74.3,48.3 -101.2,142.1 -67.9,220.9 15.2,35.9 27.9,63.4 42.5,93.8 14.2,29.8 29,58.8 43.9,87.8 29.9,57.8 61,114.9 94.4,170.7 65.6,112.3 140.8,219.1 222.1,322.4 163.6,204.9 366.1,387.5 606.9,518.2 120.1,65.1 250.9,114.2 386.1,143.3 135.3,29.3 275.1,34.6 410.6,21.3 l 100.9,-14 c 33.1,-6.6 65.9,-14.5 98.6,-21.8 65.8,-14.5 130.1,-37.5 191.5,-63.7 122.9,-52.9 236.8,-121 338.3,-202.1 39,-31.2 45.4,-88 14.2,-127 -27.9,-34.9 -76.5,-43.7 -114.3,-22.7 l -0.9,0.5 c -101.8,56.3 -207.1,103.1 -315.3,133 -54.4,14.5 -108.2,26.7 -163.4,33.3 l -82.7,9.6 -82.5,2.7 c -219.4,-1 -428.3,-67.5 -611.9,-184.7 -184.8,-116.2 -342.5,-280.1 -484.3,-458.2 -71.5,-89 -136.7,-184.1 -198.1,-281.9 -30.8,-48.8 -59.6,-99 -87.4,-149.5 -13.8,-25.2 -26.9,-50.9 -39.5,-76.4 -12.4,-24.7 -25.6,-52.8 -34.5,-73.4 l -70.3,222.4 c 26.4,-17.4 45.4,-31 66.6,-46.8 20.8,-15.2 40.9,-30.9 60.8,-46.7 39.7,-31.9 78.3,-65 116,-99.4 75.2,-69.2 146.7,-144.5 210.5,-230.3 63.6,-85.5 120.7,-181.4 159.9,-291.2 20.5,-54.2 33,-114.2 42,-173.6 6.2,-59.4 8.8,-120.6 0.4,-182.2 -13.3,-123.4 -63.6,-243.5 -134,-340.6 -34.9,-49.2 -75.1,-92.6 -118.1,-131.7 -21.5,-19.6 -43.9,-37.9 -67,-55.4 -11.4,-8.7 -23.5,-16.9 -35.4,-25.2 l -18.4,-12.1 -4.6,-2.9 c -2.9,-1.9 1.8,1 2.3,1.4 2.8,2 5.8,4.2 8.5,6.6 22.7,18.8 36.9,51.1 35.5,80.5 l 2.5,-71.4 c 1,-50 0.8,-99.5 -0.9,-149 -2.9,-99 -11.2,-197.7 -24.2,-296.1 -13.1,-98.5 -31.4,-196.7 -55.9,-294.1 -5.7,-24.4 -12.6,-48.7 -19.5,-72.9 -3.6,-12.4 -6.4,-23.6 -10.8,-37 l -15.8,-42.6 c -19.2,-57.5 -49.8,-110.5 -81.5,-161.4 -66.2,-101.6 -155,-179.6 -245.9,-242.7 -45.7,-32.9 -93.4,-57.6 -141,-83.5 -48.1,-22 -96.2,-45.9 -145.1,-62.6 -195,-73.9 -392.2,-109.7 -587.5,-131.7 -195.7,-21.8 -390,-25 -583.4,-18.5 -193.5,6.6 -385.7,26.1 -577.7,56.8 -96,16.2 -191.9,34.7 -288.4,59 -97.1,25.5 -193,53.1 -297.5,101.3 l -41.3,21.8 c -7,4 -13.3,7 -20.8,11.7 l -24.5,17.7 c -15.7,11.9 -33,24.9 -46.2,37.2 l -33.3,35.2 c -23.9,24.3 -39.1,46.8 -56.3,69.9 -18,23.3 -32.1,46 -45.8,68.7 -57.2,91 -99.5,181.4 -139.2,272.5 -77.5,182.2 -137,366.6 -187.4,552.6 -50.4,186 -90.3,373.7 -121.1,562.5 -31.3,188.9 -55.4,378.8 -69.3,569.4 -31.5,381.1 -26.2,764.9 8.9,1146.3 37.1,381.2 110.6,759.8 221,1128.5 109.6,368.7 263.9,725.1 454.8,1060.7 193.1,334 421.8,648.6 688.2,929.3 265.6,281.3 566.5,528.7 890.7,737.6 649.6,419 1384.8,681.5 2132.2,827.9 374.5,72 753.5,115.6 1133.4,133.7 190,9.7 380.3,10.8 570.6,6.8 95.3,-1.9 190.5,-6.3 285.9,-12 96.6,-6.4 188.8,-13.4 290.9,-26 98.8,-12.2 168.9,-102.2 156.7,-201 -12.3,-98.7 -102.2,-168.8 -201,-156.6 l -4.3,0.5"
         style="fill:#371b45;fill-opacity:1;fill-rule:nonzero;stroke:none"
         id="path220" />
      <path
         d="m 23024.9,21726.7 c -8,2.3 -16.4,3.6 -25.1,3.6 -2.5,0 -5.1,-0.2 -7.6,-0.4 -4,-0.3 -7.9,-0.9 -11.7,-1.7 l -102.4,472.3 -5,10.4 c 165.7,84.4 327.1,175.6 481.9,272.7 110,68.5 218.2,140.7 324.4,216.4 179.8,4.7 351.7,14.6 515.4,29.6 -90.3,-99.4 -184.2,-196.4 -282,-290.8 -77.1,-74.8 -157.2,-147.8 -239.2,-219.8 -207.8,-180.6 -424.6,-344.7 -648.7,-492.3"
         style="fill:#cdc6d0;fill-opacity:1;fill-rule:nonzero;stroke:none"
         id="path222" />
      <path
         d="m 23679.4,22700 c 91.4,65.2 181.3,132.9 269.4,203 145,8.6 288.9,21.3 429.7,38.9 -6.7,-8.5 -13.5,-16.6 -20.7,-25.2 -53,-63.3 -107.3,-125.6 -163,-187.1 -163.7,-15 -335.6,-24.9 -515.4,-29.6"
         style="fill:#371b45;fill-opacity:1;fill-rule:nonzero;stroke:none"
         id="path224" />
      <path
         d="m 19623.9,20707.9 c -934.3,0 -1865.3,210 -2714.4,625.1 v 0 l 193.1,876.3 c 887.2,-450.3 1876.9,-689 2885.4,-689 442.2,0 888.1,45.9 1330.5,140 116.6,25.1 234.7,53.7 351.7,85.3 323.2,88.6 640.1,202.9 941.9,339.7 87.9,39.9 175.1,81.8 261,125.6 l 5,-10.4 102.4,-472.3 c -37.2,-8 -65.2,-38.5 -70.6,-75.4 -5.5,-3.5 -11,-6.9 -16.5,-10.4 -233.2,-146.4 -474.3,-274.7 -720.7,-386.5 -284.6,-129.2 -576.5,-235.1 -873.3,-318.4 -13.5,-4 -26.6,-7.6 -40.1,-11.3 -113.5,-30.6 -227.1,-58.1 -341.4,-82.4 -426.8,-90.7 -860.7,-135.9 -1294,-135.9"
         style="fill:#cdc6d0;fill-opacity:1;fill-rule:nonzero;stroke:none"
         id="path226" />
      <path
         d="m 22909.9,21652.8 c 5.4,36.9 33.4,67.4 70.6,75.4 3.8,0.8 7.7,1.4 11.7,1.7 2.5,0.2 5.1,0.4 7.6,0.4 8.7,0 17.1,-1.3 25.1,-3.6 -12.8,-8.5 -25.7,-16.9 -38.6,-25.3 -25.6,-16.3 -50.9,-32.6 -76.4,-48.6"
         style="fill:#371b45;fill-opacity:1;fill-rule:nonzero;stroke:none"
         id="path228" />
      <path
         d="m 16909.5,21333 c -127.9,63 -254.6,130.1 -378.4,202.2 -540.6,313.5 -1040.2,715.3 -1477.1,1204.3 13.5,2.7 27,5.4 40.4,8 320.7,61.7 646.1,101.6 972.9,121.6 324,-254.4 670.9,-474.9 1035.3,-659.8 l -193.1,-876.3"
         style="fill:#cdc6d0;fill-opacity:1;fill-rule:nonzero;stroke:none"
         id="path230" />
      <path
         d="m 15054,22739.5 c -0.7,0.8 -1.4,1.6 -2.1,2.4 -45.1,50.5 -89.7,101.8 -132.5,153.6 334.1,72 654.2,115.3 945.1,139.9 66.5,-56.9 134.2,-112.4 202.8,-166.3 -326.8,-20 -652.2,-59.9 -972.9,-121.6 -13.4,-2.6 -26.9,-5.3 -40.4,-8"
         style="fill:#371b45;fill-opacity:1;fill-rule:nonzero;stroke:none"
         id="path232" />
      <path
         d="m 26014.5,26675.3 c -182.7,-991.4 -617,-1942.8 -1296.4,-2755 -138.6,-165.6 -286.7,-325.2 -445.1,-478 -76.9,-74.6 -156.9,-147.6 -239,-219.6 -248.2,-215.7 -509,-407.8 -780.1,-576.7 -233.3,-146.2 -474.6,-274.8 -720.8,-386.4 -297.4,-134.9 -603,-244.4 -913.5,-329.4 -113.3,-30.7 -227.1,-58.3 -341.3,-82.8 -2092,-445 -4355.6,205.9 -5866.1,1898.1 -2225.7,2492.2 -1973.6,6299 562,8502.7 488.6,424.1 1026.5,758.9 1592.3,1003.1 65.9,29.1 132.9,56.5 200.4,82.5 180,70.6 362.2,132.4 546.3,185.3 426,122.2 862,197.3 1299.2,226 437,29.2 876.3,11.9 1308.5,-51.1 137.5,-20 274.2,-44.4 410.5,-73.8 204,-44.1 405.9,-98 605.6,-163.1 994.8,-321.8 1917.8,-901.3 2659,-1731.7 1280.4,-1433.6 1740.6,-3301.9 1418.5,-5050.1"
         style="fill:#ffffff;fill-opacity:1;fill-rule:nonzero;stroke:none"
         id="path234" />
      <path
         d="m 20025.2,33739.6 c -137.3,0 -274.6,-4.6 -411.6,-13.7 -438.8,-28.8 -874.5,-104.6 -1295,-225.3 -182.9,-52.5 -366.1,-114.7 -544.7,-184.8 -70.4,-27 -137.5,-54.6 -199.5,-82.2 -574.5,-247.7 -1108.5,-584.2 -1587.6,-1000 -1227.4,-1066.6 -1959.3,-2539.4 -2061,-4146.9 -100.9,-1594.6 432.1,-3131.8 1500.7,-4328.4 1451.3,-1625.6 3692,-2350.7 5847.8,-1892.1 113,24.3 227.5,52.1 340.3,82.5 312.5,85.6 618.8,196.1 910.5,328.4 249.2,113 490.9,242.6 718.6,385.2 272.2,169.6 533.9,363.1 777.7,574.9 88.9,78.1 166.8,149.7 238.1,218.9 154.8,149.2 304.1,309.5 443.9,476.5 659.6,788.7 1106.5,1738.3 1292.2,2746.2 334.9,1818 -180.4,3652.7 -1413.9,5033.8 -713.3,799.1 -1629.9,1396 -2650.6,1726.1 -193.4,63.2 -396.6,117.9 -603.8,162.7 -132.8,28.6 -270.5,53.4 -409.2,73.6 -295.1,43 -594.1,64.6 -892.9,64.6 m -37.4,-12047.3 c -1738.5,0 -3419.3,728.9 -4590,2040.3 -1075.6,1204.4 -1612,2751.6 -1510.4,4356.6 102.3,1617.8 838.9,3100 2074.1,4173.5 482.1,418.4 1019.6,756.9 1597.4,1006.2 62.6,27.7 130.2,55.6 201.1,82.8 179.5,70.5 363.9,133 547.9,185.9 423.2,121.4 861.6,197.7 1303.2,226.7 437.6,29.2 879.1,12 1312.6,-51.2 139.5,-20.3 278,-45.2 411.7,-74 208.6,-45.2 413,-100.2 607.6,-163.7 1027.2,-332.3 1949.6,-933 2667.4,-1737.2 1241.5,-1390 1760.2,-3236.6 1423.1,-5066.4 -187,-1014.4 -636.7,-1970.1 -1300.6,-2763.9 -140.7,-168 -290.9,-329.3 -446.6,-479.5 -71.7,-69.6 -150.1,-141.6 -239.6,-220.2 -245.4,-213.2 -508.7,-407.9 -782.7,-578.6 -229,-143.5 -472.3,-273.9 -723,-387.5 -293.5,-133.2 -601.8,-244.4 -916.3,-330.5 -113.5,-30.7 -228.7,-58.6 -342.4,-83 -430.3,-91.6 -864.3,-136.3 -1294.5,-136.3"
         style="fill:#371b45;fill-opacity:1;fill-rule:nonzero;stroke:none"
         id="path236" />
      <path
         d="m 19987.5,21902.9 c -1485.4,0 -2927.4,551 -4022.7,1554.7 187,93.2 352.8,229.4 491.7,404.6 547.1,-624.5 1222.8,-1110.1 2007.1,-1436.3 709.8,-295.2 1482.6,-442.3 2269.7,-442.3 89.9,0 180.1,2 270.3,5.8 -338.7,-58.1 -678.3,-86.6 -1016.1,-86.5 m 745.9,367.5 c -749.4,0 -1484.8,139.9 -2159.6,420.5 -767.1,319 -1424.9,799.6 -1952.5,1420.3 60.5,109.8 110.8,226.9 151,349.7 36.6,-23.4 73.5,-46.4 110.6,-69 783.1,-938.9 1873.4,-1543.3 3146.4,-1715.1 246.1,-33.3 492.9,-49.6 739.3,-49.6 1343.1,0 2668.4,485.4 3754.6,1359 -121.8,-141.8 -250.4,-278.3 -383.5,-406.6 -69.2,-67.2 -145.1,-136.9 -231.1,-212.5 -237.1,-205.9 -491.3,-393.9 -756.3,-559 -79.8,-50 -161.4,-98.4 -244.6,-144.9 -709.7,-261.6 -1448.5,-392.8 -2174.3,-392.8 m -6647.5,5471.8 c 0.7,110.8 4.6,222.2 11.6,333.7 4.8,75.1 11,150.1 18.5,224.6 33.7,-163.9 74.4,-326.7 122.2,-488 -52.3,-20.3 -103.1,-43.8 -152.3,-70.3"
         style="fill:#cdc6d0;fill-opacity:1;fill-rule:nonzero;stroke:none"
         id="path238" />
      <path
         d="m 26014.6,26675.3 h 0.5 -0.5 m -5989.3,6935.3 c -134.6,0 -269,-4.5 -403.1,-13.5 -429.8,-28.2 -856.4,-102.4 -1268,-220.5 -179,-51.5 -358.4,-112.3 -533.1,-180.9 -69.3,-26.6 -134.3,-53.4 -194.4,-80 -563.5,-243.1 -1086.3,-572.4 -1555.3,-979.5 -1201,-1043.8 -1917.3,-2484.9 -2016.8,-4057.6 -98.7,-1559.9 422.7,-3063.7 1468.2,-4234.4 1420.4,-1591.1 3613.8,-2300.6 5724.6,-1851.8 110.6,23.8 222.9,51 333.6,80.9 305.4,83.7 605.3,191.8 890.8,321.4 243.9,110.5 480.6,237.4 703.4,376.9 266.8,166.3 522.9,355.6 761.6,563.1 86.7,76.1 163.1,146.3 232.9,214 151.7,146.3 297.8,303.3 434.7,466.8 645.4,771.5 1082.6,1700.7 1264.3,2686.6 327.6,1778.5 -176.6,3573.4 -1383.2,4924.5 -698.1,782.1 -1595.2,1366.2 -2594.1,1689.3 -189.6,61.9 -388.4,115.5 -591.4,159.4 -129.9,28 -264.6,52.2 -400.4,72 -289,42.1 -581.8,63.3 -874.3,63.3 m -37.4,-12047.3 c -1774.8,0 -3491.1,744.4 -4686.4,2083.4 -1098.7,1230.3 -1646.7,2810.9 -1542.9,4450.6 104.5,1652.6 856.8,3166.5 2118.3,4262.8 492.2,427.2 1040.8,772.8 1630.9,1027.3 63.3,28.1 133.1,56.8 205.9,84.8 182.4,71.6 370.7,135.5 558.6,189.4 432,124 879.6,201.9 1330.3,231.5 446.4,29.9 897.2,12.2 1339.7,-52.3 142.4,-20.7 283.8,-46.2 420.3,-75.6 213,-46.1 421.6,-102.3 620.4,-167.2 1048.6,-339.1 1990.6,-952.6 2723.7,-1773.8 1268.2,-1420 1798,-3306.5 1453.7,-5175.8 v 0 c -191,-1036.2 -650.4,-2012.5 -1328.5,-2823.3 -143.7,-171.6 -297,-336.2 -456,-489.6 -73,-70.8 -152.9,-144.3 -244,-224.2 -251,-218.2 -519.9,-416.9 -799.6,-591.2 -233.7,-146.4 -482,-279.5 -738,-395.6 -299.7,-135.9 -614.5,-249.4 -935.5,-337.4 -116.1,-31.3 -233.5,-59.8 -349.4,-84.7 -439.3,-93.5 -882.2,-139.1 -1321.5,-139.1"
         style="fill:#371b45;fill-opacity:1;fill-rule:nonzero;stroke:none"
         id="path240" />
      <path
         d="m 26014.6,26675.3 h 0.5 -0.5 m -5989.4,6892.2 c -133.5,0 -267,-4.4 -400.1,-13.3 -426.8,-28 -850.3,-101.7 -1259.1,-219 -177.7,-51 -355.7,-111.5 -529.2,-179.5 -68.9,-26.5 -133.3,-53 -192.7,-79.3 -559.8,-241.5 -1078.8,-568.5 -1544.5,-972.7 -1192.3,-1036.2 -1903.3,-2466.6 -2002.1,-4027.8 -97.9,-1548.3 419.6,-3041 1457.4,-4203 1410.1,-1579.7 3587.8,-2284.2 5683.6,-1838.4 109.7,23.6 221.3,50.7 331.2,80.4 303.2,83 600.9,190.4 884.3,319 242.3,109.7 477.2,235.6 698.3,374.2 265,165.1 519.2,353.1 756.3,559 86,75.6 161.9,145.3 231.1,212.5 150.7,145.4 295.9,301.2 431.7,463.5 640.6,765.9 1074.6,1688.1 1255,2666.9 325.2,1765.3 -175.3,3546.9 -1373,4888 -693,776.3 -1583.6,1356.2 -2575.3,1677 -188.2,61.5 -385.7,114.6 -587.2,158.2 -128.9,27.8 -262.7,51.9 -397.5,71.5 -287,41.8 -577.7,62.8 -868.2,62.8 M 19988,21520.3 c -1787,0 -3515,749.5 -4718.6,2097.7 -1106.4,1239 -1658.3,2830.7 -1553.8,4482 105.3,1664.2 862.8,3188.6 2133.1,4292.6 495.5,430 1047.9,778 1642.1,1034.3 63.6,28.2 134,57.2 207.6,85.5 183.3,71.9 372.8,136.2 562,190.6 435,124.8 885.6,203.2 1339.4,233 449.4,30.1 903.2,12.3 1348.7,-52.7 143.3,-20.8 285.7,-46.4 423.2,-76 214.4,-46.4 424.5,-103 624.7,-168.4 1055.8,-341.5 2004.2,-959.1 2742.4,-1786.1 1277.1,-1429.9 1810.7,-3329.7 1463.9,-5212.2 -192.3,-1043.5 -654.9,-2026.6 -1337.8,-2843.1 -144.6,-172.7 -299.1,-338.6 -459.1,-492.9 -73.5,-71.3 -153.9,-145.2 -245.5,-225.7 -252.9,-219.8 -523.6,-419.8 -805.3,-595.3 -235.1,-147.4 -485.3,-281.4 -742.9,-398.3 -301.8,-136.8 -618.7,-251.1 -941.9,-339.7 -117,-31.6 -235.1,-60.2 -351.7,-85.3 -442.4,-94.1 -888.3,-140 -1330.5,-140"
         style="fill:#371b45;fill-opacity:1;fill-rule:nonzero;stroke:none"
         id="path242" />
      <path
         d="m 25539.3,25202.8 c -2622.7,-3451.7 -7804.8,-3294.5 -9393,665.7 -1080.4,2694.4 765,5827.5 3459.9,6694.6 1961.4,631.2 4153.1,402.3 5967.4,-2327.7 0,0 613.4,-1331.5 539.1,-2375.6 -74.3,-1044.2 -325.3,-2048 -325.3,-2048 l -248.1,-609"
         style="fill:#371b45;fill-opacity:1;fill-rule:nonzero;stroke:none"
         id="path244" />
      <path
         d="m 16146.5,25868.6 c 1588,-3960.2 6770.2,-4117.3 9392.9,-666 l 50.2,123.5 c -3523.8,-1880.4 -7987.3,-892.1 -9668.6,3082.2 -162.9,-835.1 -107.7,-1708.2 225.5,-2539.7"
         style="fill:#22132c;fill-opacity:1;fill-rule:nonzero;stroke:none"
         id="path246" />
      <path
         d="m 26014.6,26675.3 h 0.5 -0.5 m -4622.4,6667.3 c -606.9,0 -1247.4,-107.4 -1911,-321 -1542.4,-496.2 -2890.6,-1702.6 -3606.4,-3227.2 -640.2,-1363.2 -708.8,-2822 -193.2,-4107.7 564.8,-1407.9 1564.9,-2443.8 2892.2,-2995.8 1414.6,-588.3 3095.7,-558 4613.7,82.8 263.3,164.7 516.4,352.2 752.4,557.3 86.9,76.3 163.3,146.5 233.1,214.3 151.9,146.4 298.1,303.5 435.1,467.1 645.9,772.2 1083.5,1702 1265.4,2688.9 327.8,1779.9 -176.8,3576.3 -1384.5,4928.5 -695.3,779 -1588,1361.8 -2582.1,1686.1 -168.6,17.8 -340.3,26.7 -514.7,26.7 m -658.9,-11359 c -787.1,0 -1559.9,147.1 -2269.7,442.3 -1400.1,582.3 -2454.2,1672.9 -3048.3,3154 -545.6,1360.3 -474.7,2900.4 199.7,4336.5 749.1,1595.3 2161.5,2858.2 3778.3,3378.4 898.4,289.1 1759.3,391.7 2559.2,304.9 l 14.7,-1.6 14,-4.5 c 1048.2,-339.1 1989.4,-952 2721.9,-1772.6 1267.2,-1418.9 1796.6,-3303.9 1452.6,-5171.7 -190.8,-1035.4 -649.9,-2010.9 -1327.5,-2821.1 -143.5,-171.4 -296.8,-336 -455.6,-489.2 -73,-70.8 -152.9,-144.2 -243.9,-224.1 -250.8,-218 -519.5,-416.6 -798.9,-590.7 l -19.9,-10.3 c -832.5,-353.1 -1713.2,-530.3 -2576.6,-530.3"
         style="fill:#371b45;fill-opacity:1;fill-rule:nonzero;stroke:none"
         id="path248" />
      <path
         d="m 25539.4,25202.8 h 0.5 -0.5 m -4208,7530.1 c -537.7,0 -1100.7,-94.5 -1688.6,-283.6 -1374.2,-442.2 -2575.6,-1517.1 -3213.4,-2875.4 -570.5,-1214.8 -631.6,-2514.9 -172.1,-3660.9 669.8,-1670.1 2056.3,-2763.3 3803.9,-2999.2 2002.8,-270.4 4060.2,629.5 5373.4,2348.8 l 238.8,586.2 c 23.6,96.9 250.9,1046.9 320,2019.5 68.3,959.3 -474.4,2196.7 -524.7,2309 -1132.9,1700.8 -2519.6,2555.6 -4137.3,2555.6 m -562.8,-10105.7 c -246.4,0 -493.2,16.3 -739.3,49.6 -1835.5,247.8 -3291.2,1394.9 -3993.9,3147.2 -484.6,1208.2 -421.5,2576 177.5,3851.6 665.6,1417.2 1920.4,2539.2 3356.7,3001.3 2473.7,796 4527.2,-3.2 6103.6,-2375.3 l 9,-16.2 c 25.6,-55.5 625.4,-1371.6 549.8,-2434.1 -74.2,-1042.6 -326,-2058.4 -328.5,-2068.5 l -5.3,-16.1 -254,-623.7 -9.6,-12.5 c -1204.2,-1584.8 -3018.2,-2503.3 -4866,-2503.3"
         style="fill:#371b45;fill-opacity:1;fill-rule:nonzero;stroke:none"
         id="path250" />
      <path
         d="m 13488.1,25279 c 304.4,-1148.5 1248,-1931.6 2107.8,-1748.9 859.8,182.7 1309.9,1262.1 1005.4,2410.6 -1.7,7.2 -4,14.9 -6.1,22 -310.4,1136.6 -1248,1908.5 -2101.7,1727 -664.2,-141.2 -1083.8,-817.4 -1100.2,-1647.2 -4.7,-244.3 25.6,-502.3 94.8,-763.5"
         style="fill:#ffffff;fill-opacity:1;fill-rule:nonzero;stroke:none"
         id="path252" />
      <path
         d="m 15339.8,23694.8 c -34,0 -68,1.6 -102,4.8 103.8,44 201,106.3 289.8,186.4 55.5,50 105.7,105.5 150.7,165.7 181.4,207.5 288.5,506.2 285.1,864.1 0,2.9 -0.1,5.9 -0.1,8.9 11.3,280.8 -36.8,578.2 -145.4,862 143.9,-66.5 280.5,-112.6 382.9,-112.6 1.7,0 3.4,0 5,0.1 100.6,1.5 179.7,36.2 241.7,87.1 119.8,-564.3 48.6,-1127.2 -197.6,-1527.7 -170.5,-277.5 -410.4,-456 -693.8,-516.3 -71.6,-15.2 -143.8,-22.5 -216.3,-22.5"
         style="fill:#cdc6d0;fill-opacity:1;fill-rule:nonzero;stroke:none"
         id="path254" />
      <path
         d="m 13672.8,25328 c 278.3,-1049.7 1123.3,-1772.2 1883.3,-1610.7 283.4,60.3 523.3,238.8 693.8,516.3 265.1,431.4 327.4,1051.3 166.5,1658.2 -278.3,1049.7 -1123.1,1772 -1883.3,1610.7 -283.3,-60.3 -523.2,-238.8 -693.8,-516.3 -265.1,-431.4 -327.3,-1051.2 -166.4,-1658.2 h -0.1 M 15347,23312.9 c -869.9,0 -1747.3,797.6 -2044,1917.1 h -0.1 c -189.9,716.8 -113.3,1429.9 210.4,1956.6 226.8,368.9 551.9,607.6 940.2,690.1 956.6,203.5 2003.1,-643.2 2332.7,-1886.9 190.1,-716.8 113.4,-1429.9 -210.3,-1956.5 -226.8,-369 -551.9,-607.7 -940.2,-690.2 -95.6,-20.4 -192.1,-30.2 -288.7,-30.2"
         style="fill:#371b45;fill-opacity:1;fill-rule:nonzero;stroke:none"
         id="path256" />
      <path
         d="m 13605.9,24414.6 c 507.4,-776.7 1361.8,-1006.7 1908.3,-513.8 546.6,492.9 578.3,1522 70.9,2298.7 -507.3,776.7 -1361.7,1006.7 -1908.3,513.8 -546.5,-492.9 -578.3,-1522.1 -70.9,-2298.7"
         style="fill:#ffffff;fill-opacity:1;fill-rule:nonzero;stroke:none"
         id="path258" />
      <path
         d="m 14346.6,26953 c -245.6,0 -470.2,-86.7 -656.4,-254.6 -538.7,-485.8 -569,-1505.4 -67.5,-2272.9 278.9,-427 672.9,-702.2 1081,-755.2 300.4,-39.1 576,45.8 797.1,245.3 538.7,485.9 569,1505.5 67.6,2272.9 -278.9,427 -672.9,702.2 -1081,755.2 -47.6,6.2 -94.6,9.3 -140.8,9.3 m 498.2,-3331.9 c -48,0 -96.8,3.2 -146.2,9.6 -419.7,54.5 -824.1,336.2 -1109.4,772.9 -511.8,783.3 -478.5,1826.1 74.2,2324.5 230.1,207.6 516.8,295.8 829.1,255.3 419.7,-54.5 824.1,-336.3 1109.4,-773 511.7,-783.3 478.4,-1826 -74.3,-2324.4 -193.7,-174.7 -427.4,-264.9 -682.8,-264.9"
         style="fill:#371b45;fill-opacity:1;fill-rule:nonzero;stroke:none"
         id="path260" />
      <path
         d="m 15678.3,24051.7 c 176.2,235.7 271.7,542.9 285,873 0,-3 0.1,-6 0.1,-8.9 3.4,-357.9 -103.7,-656.6 -285.1,-864.1"
         style="fill:#a69aac;fill-opacity:1;fill-rule:nonzero;stroke:none"
         id="path262" />
      <path
         d="m 14973,23735 c -96.9,0 -198.2,13.5 -302.4,41.7 -722,195.7 -1313.9,1023 -1321.9,1847.8 -0.3,49.1 1,97.3 4.8,144 240.7,-443.3 631.4,-795.5 1070.2,-914 104.3,-28.2 205.5,-41.7 302.4,-41.7 534.6,0 937.9,411.2 985.4,1037.1 64.4,-118.3 118.1,-243 159.1,-371.5 139.2,-602.5 13.1,-1217.4 -369.8,-1562.8 -33.9,-30.6 -69.2,-58.6 -105.6,-83.8 -126.4,-63 -268.9,-96.8 -422.2,-96.8"
         style="fill:#cbc4cf;fill-opacity:1;fill-rule:nonzero;stroke:none"
         id="path264" />
      <path
         d="m 15395.2,23831.8 c 36.4,25.2 71.7,53.2 105.6,83.8 382.9,345.4 509,960.3 369.8,1562.8 57.3,-179.6 90,-366.6 92.7,-553.7 -13.3,-330.1 -108.8,-637.3 -285,-873 -80.7,-92.3 -176.1,-166.5 -283.1,-219.9"
         style="fill:#371b45;fill-opacity:1;fill-rule:nonzero;stroke:none"
         id="path266" />
      <path
         d="m 14291.7,26867.9 c -44.5,0 -88.6,-4.3 -132,-13.2 -234.6,-47.9 -380,-213.8 -460.7,-344.5 -208.7,-338 -251.4,-843.7 -114.3,-1352.8 h 0.1 c 221.8,-824 867.8,-1426.4 1410.6,-1315.4 234.7,48 380.1,213.8 460.8,344.5 208.7,338 251.4,843.8 114.3,1352.8 -204.2,758.1 -767.4,1328.6 -1278.8,1328.6 z m 566.5,-3422.3 c -693,-0.1 -1387.2,663 -1642.9,1612.3 -164.1,609.1 -105,1227.2 158.1,1653.3 172.5,279.5 417.9,458.8 709.7,518.5 759.4,155 1574.8,-543.6 1856.9,-1590.8 164,-609.2 104.9,-1227.2 -158.2,-1653.4 -172.6,-279.5 -418,-458.8 -709.7,-518.4 -71,-14.5 -142.4,-21.5 -213.9,-21.5"
         style="fill:#371b45;fill-opacity:1;fill-rule:nonzero;stroke:none"
         id="path268" />
      <path
         d="m 24726.2,26888.2 c 0,0 47,547.2 -274.3,1586.9 -105.8,341.8 -240.9,724.9 -543.4,1217 -228.8,372.1 -553.3,678.8 -941.9,885.1 -2,1 -3.9,2 -5.8,3.1 -793.5,420.5 -1718.7,540.4 -2516.3,540.4 -1059.1,0 -1893,-211.6 -1893,-211.6 -107.4,73.3 1125.4,1137.3 2939.1,1137.3 221.6,0 452,-15.9 689.6,-51.4 1166.7,-174.5 1949.3,-1076.6 2403.9,-1812.4 150.8,-243.8 265.5,-469.5 346,-644.3 l 0.7,-1.1 c 8.3,-20.2 16.4,-40.2 24,-60.7 33.5,-88.6 63.2,-175.9 89,-261.5 258.8,-868.6 113.1,-1595 -317.6,-2326.8"
         style="fill:#9b8da2;fill-opacity:1;fill-rule:nonzero;stroke:none"
         id="path270" />
      <path
         d="m 17415.9,26885.3 c -438.9,0 -804.1,400.2 -821.5,907.6 -17.9,517.9 333,951.3 783.8,968.1 8.9,0.3 17.9,0.5 26.9,0.5 438.9,0 804.1,-400.2 821.6,-907.8 17.8,-517.8 -333.1,-951.2 -783.8,-967.9 -9,-0.4 -18,-0.5 -27,-0.5"
         style="fill:#9b8da2;fill-opacity:1;fill-rule:nonzero;stroke:none"
         id="path272" />
      <path
         d="m 17744.1,25901 c -178.9,150.2 -351.2,312.3 -515.2,485.3 62.8,74.7 150.7,120.9 246.5,120.9 4.6,0 9.2,-0.1 13.8,-0.3 185.9,-8.6 327.8,-188.9 316.9,-402.6 -3.9,-75.6 -26.4,-145.2 -62,-203.3"
         style="fill:#9b8da2;fill-opacity:1;fill-rule:nonzero;stroke:none"
         id="path274" />
      <path
         d="m 17463.3,25732.5 c -4.6,0 -9.2,0.1 -13.8,0.3 -186,8.6 -327.9,188.9 -317,402.6 5,97.6 41,185.2 96.4,250.9 164,-173 336.3,-335.1 515.2,-485.3 -62.7,-102.1 -166.1,-168.5 -280.8,-168.5"
         style="fill:#918996;fill-opacity:1;fill-rule:nonzero;stroke:none"
         id="path276" />
      <path
         d="m 27025,26677.1 c 0,0 -534.1,-134.9 -658.2,-777.8 -139.2,-720.8 100.1,-987.2 619.5,-1194.3 442.5,-176.3 1152.1,-642.3 1640.6,-392.8 311,158.9 315.4,588.3 610.5,584 l -2305.3,1464.5 92.9,316.4"
         style="fill:#ffffff;fill-opacity:1;fill-rule:nonzero;stroke:none"
         id="path278" />
      <path
         d="m 28338.6,24396.2 c -35.8,0 -72.4,2.6 -109.6,7.3 -92.1,11.8 -186.6,37.7 -280.8,70.5 -94.7,32.6 -189.4,72.1 -284.1,115.9 -94.7,43.8 -189.8,91 -286.9,138.6 -49.4,24.2 -99,48.8 -149.9,73.2 -111.8,250.8 -443.8,408.5 -667.4,489.3 -10.2,29.1 -18.2,59.9 -24.3,92.5 -5.9,32.7 -9.3,66.9 -10.8,102.3 119.8,-99.4 273.3,-179.2 457.3,-252.5 406.5,-162.2 1008.4,-536.1 1521.3,-536.1 131,0 256.2,24.4 370.9,82.9 0.6,0.4 1.3,0.7 2,1.1 -67.9,-92.3 -118.7,-178.1 -178.7,-241.1 -29.8,-34.6 -63.1,-57.7 -95.5,-79.8 -18.5,-7.7 -32.5,-18.6 -52.7,-25.6 -19,-8.4 -39.1,-14.2 -59,-20.2 -48.2,-12.7 -99.1,-18.3 -151.8,-18.3"
         style="fill:#cdc6d0;fill-opacity:1;fill-rule:nonzero;stroke:none"
         id="path280" />
      <path
         d="m 27069.1,26502.4 c 2.1,0.4 -4.7,-1.9 -7.9,-3 l -13.4,-5.3 c -9,-3.3 -18.8,-8.2 -28.3,-12.3 -19.1,-9.1 -38.7,-18.5 -57.4,-29.8 -38.1,-21.3 -74.2,-46.6 -108.8,-73.3 -68.1,-55 -126.3,-120.6 -172.9,-194.2 -46.1,-74.1 -78.9,-156.9 -103.8,-243.5 l -15.7,-66.5 c -5.6,-21.9 -8.4,-48.5 -12.6,-72.5 -9.3,-49.6 -13.6,-97.9 -19,-146.2 -7.4,-95.4 -8.7,-189.2 6.3,-272.3 15.5,-82.9 43.4,-154.2 88.1,-216.3 44.6,-62.2 108.6,-116.9 186.7,-165.1 79,-48.5 165.4,-89 263.4,-130.6 107.9,-45.9 205.9,-95.2 303.4,-143 97.1,-47.6 192.2,-94.8 286.9,-138.6 94.7,-43.8 189.4,-83.3 284.1,-115.9 94.2,-32.8 188.7,-58.7 280.8,-70.5 91.9,-11.6 180.5,-10.3 261.4,11 19.9,6 40,11.8 59,20.2 20.2,7 34.2,17.9 52.7,25.6 32.4,22.1 65.7,45.2 95.5,79.8 62.1,65.2 114.4,154.9 185.9,250.8 35.6,47.3 79,99 141.7,139.9 61.9,41.9 143,60.3 213.5,55.5 49.6,-3.5 87,-46.4 83.5,-96 -3,-43.2 -35.8,-77 -77,-82.9 l -9.2,-1.3 c -37.9,-5.4 -64.9,-18.6 -90.2,-41.4 -25.7,-22.3 -50,-58.1 -73.9,-100.6 -49.3,-83.6 -93.1,-190.5 -170.7,-291.8 -36.5,-51.5 -86.2,-99.4 -139.9,-142.6 -58.3,-40.7 -117.3,-72.5 -180.1,-94.9 -125.8,-44.9 -257.7,-57.4 -381.1,-48.8 -248.2,16.7 -469,95.1 -676.6,179.3 -207.6,83.3 -404.4,185.9 -591.1,259.5 -102.5,40.3 -215,87.2 -321.3,151.3 -106.7,63.7 -214.3,148.1 -298.4,260.8 -85,112 -138.1,247.6 -161.1,377.6 -23.4,130.7 -20.7,255.2 -11.7,375.3 5.9,59.5 12.4,119 23.5,175.8 5.6,29.3 8.6,56.7 16.2,87.3 l 22.6,91.4 c 35.1,121.1 85,240.8 157.4,348.6 72.3,107.6 162.4,203.5 265.4,281.5 52.2,38 105.7,74 163.9,102.6 28.5,15.1 58.4,28 88.9,40.5 15.7,5.9 30.5,12.2 47.2,17.5 l 25,8.1 c 9.7,2.8 15.8,4.9 30.9,8.7 96.5,24.3 194.5,-34.1 218.8,-130.6 24.4,-96.4 -34,-194.4 -130.6,-218.8"
         style="fill:#371b45;fill-opacity:1;fill-rule:nonzero;stroke:none"
         id="path282" />
      <path
         d="m 26344.1,25357.2 c 0,0 893.1,-207.5 920.9,-709.2 12.6,-226.6 -27.8,-477.8 -617.2,-362.4 -589.3,115.5 -689.9,940.2 -303.7,1071.6"
         style="fill:#ffffff;fill-opacity:1;fill-rule:nonzero;stroke:none"
         id="path284" />
      <path
         d="m 26907.5,24256.6 c -71.8,0 -157.4,8.9 -259.7,29 -34.4,6.7 -67.2,15.9 -98.3,27.2 31.1,-11.3 63.9,-20.4 98.3,-27.2 102.3,-20 188,-29 259.8,-29 24.7,0 47.7,1 69.2,3.1 -21.5,-2.1 -44.6,-3.1 -69.3,-3.1"
         style="fill:#cdc6d0;fill-opacity:1;fill-rule:nonzero;stroke:none"
         id="path286" />
      <path
         d="m 26907.6,24256.6 c -71.8,0 -157.5,9 -259.8,29 -34.4,6.8 -67.2,15.9 -98.3,27.2 -337.5,123 -478.6,498 -423.3,767.3 69.8,-206.7 234.7,-396.4 495,-447.3 102.4,-20 188.3,-29 260.2,-29 225.2,0 313.1,88.4 343.8,202.5 22.6,-49.1 36.6,-101.8 39.7,-158.1 9.6,-174.1 -12,-362.2 -288.1,-388.5 -21.5,-2.1 -44.5,-3.1 -69.2,-3.1"
         style="fill:#cdc6d0;fill-opacity:1;fill-rule:nonzero;stroke:none"
         id="path288" />
      <path
         d="m 26368.1,25153.4 c -49.3,-45.7 -67,-139.2 -61.3,-224 13,-192.7 134.9,-408.4 377.8,-456 286.8,-56.2 358.7,-2.2 366,4.1 14.1,12.2 29.5,49.9 23.4,159.9 -13.8,248 -444.7,441.3 -705.9,516 z m 541.4,-1088.4 c -87.9,0 -186.9,11 -298.5,32.9 -439.8,86.1 -663.9,478.1 -685.9,805.8 -20.5,304.7 119.7,553.8 357.4,634.7 l 51.7,17.6 53.2,-12.4 c 105.7,-24.6 1033.9,-258.1 1068.6,-885 4.9,-87.5 17.8,-320 -154.1,-469.7 -95.3,-83 -223.1,-123.9 -392.4,-123.9"
         style="fill:#371b45;fill-opacity:1;fill-rule:nonzero;stroke:none"
         id="path290" />
      <path
         d="m 20410.7,13511.9 c -6.2,0 -12.4,0.4 -18.6,1.2 -78.7,10.2 -134.1,82.2 -123.9,160.8 12,92.3 305.7,2271.8 1371,3033.2 326.7,233.6 692.5,311.3 1087.1,230.9 77.7,-15.8 127.8,-91.6 112,-169.2 -15.8,-77.6 -91.3,-127.6 -169.2,-112 -317.6,64.7 -599.8,4.8 -862.8,-183 -963.8,-688.5 -1250.7,-2815.5 -1253.5,-2836.9 -9.4,-72.3 -71.1,-125 -142.1,-125"
         style="fill:#371b45;fill-opacity:1;fill-rule:nonzero;stroke:none"
         id="path292" />
      <path
         d="m 26222.2,19360.4 c -27,0 -54.5,5.8 -80.6,17.9 -1607.4,747.9 -1389.2,3565.4 -1379.1,3685 8.8,105.2 101.2,183.1 206.6,174.5 105.2,-8.8 183.4,-101.3 174.7,-206.6 -2.3,-26.6 -206.2,-2670.6 1159.2,-3305.9 95.8,-44.6 137.3,-158.4 92.8,-254.2 -32.4,-69.7 -101.5,-110.7 -173.6,-110.7"
         style="fill:#371b45;fill-opacity:1;fill-rule:nonzero;stroke:none"
         id="path294" />
      <path
         d="m 14753.9,18651.5 c -94.8,0 -177.1,70.4 -189.5,166.8 -291.1,2258.5 -2570.7,2124.4 -2667.6,2117.5 -106.1,-8 -196.8,71.8 -204.4,177.1 -7.5,105.3 71.4,196.8 176.7,204.5 27.9,1.9 689.3,46.8 1399.1,-227.6 667,-257.8 1499.1,-852.7 1675.7,-2222.5 13.5,-104.9 -60.5,-200.8 -165.3,-214.2 -8.3,-1.1 -16.6,-1.6 -24.7,-1.6"
         style="fill:#371b45;fill-opacity:1;fill-rule:nonzero;stroke:none"
         id="path296" />
      <path
         d="m 23618.2,10845 c -852,0 -1358.3,387.6 -1386.4,409.8 -62.3,48.9 -73.1,139.1 -24.1,201.4 48.8,62.2 138.8,73.1 201.2,24.4 34.9,-27.1 833.8,-628.2 2135,-188.5 75.2,25.2 156.5,-14.9 181.8,-90 25.4,-75.1 -14.9,-156.5 -89.9,-181.8 -377.9,-127.7 -719,-175.3 -1017.6,-175.3"
         style="fill:#371b45;fill-opacity:1;fill-rule:nonzero;stroke:none"
         id="path298" />
      <path
         d="m 24707.6,11801.5 c -776.3,0 -1505.1,226.1 -1549.8,240.3 -75.6,23.9 -117.5,104.4 -93.6,180 23.8,75.6 104.5,117.3 180,93.7 15.1,-4.9 1527.1,-473.1 2424.1,-48.4 71.7,33.9 157.2,3.3 191.1,-68.2 34,-71.7 3.4,-157.2 -68.2,-191.1 -324.8,-153.9 -709.7,-206.3 -1083.6,-206.3"
         style="fill:#371b45;fill-opacity:1;fill-rule:nonzero;stroke:none"
         id="path300" />
      <path
         d="m 25370.8,12985 c -707.8,0 -1288.2,370 -1322.7,392.4 -66.5,43.2 -85.3,132.2 -42.1,198.6 43.2,66.4 132,85.2 198.4,42.2 10.6,-7 1079.6,-684.6 1986.6,-114 67.1,42.2 155.7,22.1 197.8,-45 42.3,-67.1 22.1,-155.7 -45,-197.9 -325.1,-204.6 -661.5,-276.3 -973,-276.3"
         style="fill:#371b45;fill-opacity:1;fill-rule:nonzero;stroke:none"
         id="path302" />
      <path
         d="m 8100.48,24888.6 c 0,-54.5 -111.75,-102 -278.66,-128.2 -84.27,-13.2 -150.64,-79.6 -163.85,-163.9 -26.17,-166.9 -73.72,-278.6 -128.23,-278.6 -54.51,0 -102.05,111.7 -128.22,278.6 -13.22,84.3 -79.6,150.7 -163.88,163.9 -167.03,26.2 -279.05,73.7 -279.05,128.2 0,54.8 111.92,102.4 278.84,128.4 84.38,13.2 150.88,79.6 164.09,163.9 26.18,167.1 73.72,278.9 128.22,278.9 54.51,0 102.05,-111.8 128.22,-278.9 13.22,-84.3 79.7,-150.7 164.08,-163.9 166.79,-26 278.44,-73.6 278.44,-128.4"
         style="fill:#ffffff;fill-opacity:1;fill-rule:nonzero;stroke:none"
         id="path304" />
      <path
         d="m 11344.6,25150.9 c -10,-45.2 -111.3,-64.1 -254.5,-55.2 -72.3,4.5 -139.5,-38.4 -165.9,-105.8 -52.2,-133.6 -112.1,-217.5 -157.3,-207.5 -45.2,10 -64.1,111.3 -55.2,254.5 4.5,72.3 -38.4,139.5 -105.8,165.8 -133.7,52.4 -217.9,112.3 -207.9,157.5 10.1,45.4 111.6,64.4 254.7,55.3 72.4,-4.6 139.7,38.3 166.1,105.8 52.3,133.7 112.2,217.6 157.4,207.7 45.2,-10 64.1,-111.4 55.2,-254.7 -4.6,-72.3 38.4,-139.6 105.9,-165.9 133.5,-52.2 217.3,-112.1 207.3,-157.5"
         style="fill:#ffffff;fill-opacity:1;fill-rule:nonzero;stroke:none"
         id="path306" />
      <path
         d="m 12126.2,12367.4 c -10,-45.2 -111.3,-64.1 -254.5,-55.2 -72.2,4.5 -139.4,-38.4 -165.8,-105.8 -52.3,-133.6 -112.2,-217.5 -157.4,-207.5 -45.2,10 -64.1,111.3 -55.2,254.5 4.5,72.3 -38.4,139.4 -105.8,165.8 -133.7,52.4 -217.8,112.3 -207.8,157.5 10,45.4 111.5,64.4 254.7,55.3 72.3,-4.6 139.6,38.3 166,105.8 52.4,133.7 112.2,217.6 157.4,207.6 45.2,-9.9 64.1,-111.3 55.2,-254.6 -4.5,-72.3 38.4,-139.6 106,-165.9 133.5,-52.2 217.3,-112.1 207.2,-157.5"
         style="fill:#ffffff;fill-opacity:1;fill-rule:nonzero;stroke:none"
         id="path308" />
      <path
         d="m 11505.5,30333.9 c 0,-88.4 -71.7,-160.1 -160.1,-160.1 -88.4,0 -160.1,71.7 -160.1,160.1 0,88.4 71.7,160.1 160.1,160.1 88.4,0 160.1,-71.7 160.1,-160.1"
         style="fill:#ffffff;fill-opacity:1;fill-rule:nonzero;stroke:none"
         id="path310" />
      <path
         d="m 9661.46,15329.5 c -63.97,-52.2 -158.12,-42.6 -210.3,21.4 -52.17,63.9 -42.62,158.1 21.35,210.2 63.97,52.2 158.12,42.7 210.3,-21.3 52.17,-64 42.61,-158.1 -21.35,-210.3"
         style="fill:#ffffff;fill-opacity:1;fill-rule:nonzero;stroke:none"
         id="path312" />
      <path
         d="m 7693.3,20670.5 c -53.02,-90.4 -169.33,-120.7 -259.77,-67.7 -90.45,53 -120.79,169.3 -67.77,259.8 53.03,90.4 169.34,120.7 259.78,67.7 90.45,-53 120.79,-169.3 67.76,-259.8"
         style="fill:#ffffff;fill-opacity:1;fill-rule:nonzero;stroke:none"
         id="path314" />
      <path
         d="m 27899.6,26351.2 c 13.9,-124 -75.4,-235.9 -199.5,-249.7 -124,-13.9 -235.9,75.4 -249.7,199.5 -13.9,124.1 75.4,235.9 199.5,249.7 124.1,13.9 235.9,-75.4 249.7,-199.5"
         style="fill:#ffffff;fill-opacity:1;fill-rule:nonzero;stroke:none"
         id="path316" />
      <path
         d="m 29832.4,30359 c 13.9,-124 -75.5,-235.8 -199.5,-249.7 -124.1,-13.9 -235.9,75.5 -249.8,199.5 -13.8,124.1 75.5,235.9 199.6,249.7 124,13.9 235.8,-75.4 249.7,-199.5"
         style="fill:#ffffff;fill-opacity:1;fill-rule:nonzero;stroke:none"
         id="path318" />
      <path
         d="m 29373.4,12472.2 c 0,-99.3 -80.5,-179.9 -179.8,-179.9 -99.3,0 -179.8,80.6 -179.8,179.9 0,99.3 80.5,179.8 179.8,179.8 99.3,0 179.8,-80.5 179.8,-179.8"
         style="fill:#ffffff;fill-opacity:1;fill-rule:nonzero;stroke:none"
         id="path320" />
      <path
         d="m 10871.3,23047.2 c 0,-45.5 -36.8,-82.3 -82.3,-82.3 -45.5,0 -82.4,36.8 -82.4,82.3 0,45.5 36.9,82.3 82.4,82.3 45.5,0 82.3,-36.8 82.3,-82.3"
         style="fill:#ffffff;fill-opacity:1;fill-rule:nonzero;stroke:none"
         id="path322" />
      <path
         d="m 9495.86,11401.5 c 0,-45.4 -36.86,-82.3 -82.33,-82.3 -45.48,0 -82.34,36.9 -82.34,82.3 0,45.5 36.86,82.4 82.34,82.4 45.47,0 82.33,-36.9 82.33,-82.4"
         style="fill:#ffffff;fill-opacity:1;fill-rule:nonzero;stroke:none"
         id="path324" />
      <path
         d="m 12894.5,16777.1 c -41.8,-34.1 -103.3,-27.8 -137.4,13.9 -34.1,41.8 -27.8,103.3 14,137.4 41.8,34.1 103.3,27.8 137.3,-13.9 34.1,-41.8 27.9,-103.3 -13.9,-137.4"
         style="fill:#ffffff;fill-opacity:1;fill-rule:nonzero;stroke:none"
         id="path326" />
      <path
         d="m 31383.9,22371 c 3.3,-64.1 -46.1,-118.7 -110.2,-121.9 -64.1,-3.2 -118.7,46.1 -121.9,110.2 -3.3,64.2 46.1,118.7 110.2,122 64.1,3.2 118.7,-46.2 121.9,-110.3"
         style="fill:#ffffff;fill-opacity:1;fill-rule:nonzero;stroke:none"
         id="path328" />
      <path
         d="m 32217.2,13010.3 c -0.1,-51.1 -41.6,-92.4 -92.7,-92.3 -51.1,0.1 -92.4,41.6 -92.3,92.7 0.1,51 41.6,92.4 92.7,92.3 51,-0.1 92.4,-41.6 92.3,-92.7"
         style="fill:#ffffff;fill-opacity:1;fill-rule:nonzero;stroke:none"
         id="path330" />
      <path
         d="m 28051,15238.2 c -10.8,-103 -103.1,-177.9 -206.1,-167.1 -103.1,10.7 -177.9,103 -167.2,206 10.8,103.1 103,177.9 206.1,167.2 103.1,-10.7 177.9,-103 167.2,-206.1"
         style="fill:#ffffff;fill-opacity:1;fill-rule:nonzero;stroke:none"
         id="path332" />
      <path
         d="m 31878.2,17429.1 c 0,-47.2 -96.7,-88.3 -241.1,-111 -73,-11.4 -130.4,-68.9 -141.9,-141.8 -22.6,-144.4 -63.7,-241.2 -110.9,-241.2 -47.2,0 -88.3,96.8 -111,241.2 -11.4,72.9 -68.9,130.4 -141.8,141.8 -144.6,22.7 -241.5,63.8 -241.5,111 0,47.4 96.9,88.6 241.3,111.1 73,11.4 130.6,68.9 142,141.9 22.7,144.6 63.8,241.3 111,241.3 47.2,0 88.3,-96.7 110.9,-241.3 11.5,-73 69,-130.5 142,-141.9 144.4,-22.5 241,-63.7 241,-111.1"
         style="fill:#ffffff;fill-opacity:1;fill-rule:nonzero;stroke:none"
         id="path334" />
      <path
         d="m 26412.2,21066.6 c 0,-47.1 -96.7,-88.3 -241.1,-110.9 -73,-11.5 -130.4,-68.9 -141.8,-141.8 -22.7,-144.5 -63.8,-241.2 -111,-241.2 -47.2,0 -88.3,96.7 -111,241.2 -11.4,72.9 -68.9,130.3 -141.8,141.8 -144.6,22.6 -241.5,63.8 -241.5,110.9 0,47.5 96.9,88.7 241.3,111.2 73,11.3 130.6,68.8 142,141.8 22.7,144.6 63.8,241.3 111,241.3 47.2,0 88.3,-96.7 111,-241.3 11.4,-73 68.9,-130.5 142,-141.8 144.3,-22.5 240.9,-63.7 240.9,-111.2"
         style="fill:#ffffff;fill-opacity:1;fill-rule:nonzero;stroke:none"
         id="path336" />
      <path
         d="m 34970,20438.7 c 0,-47.2 -96.7,-88.4 -241.1,-111 -73,-11.4 -130.4,-68.9 -141.8,-141.8 -22.7,-144.5 -63.8,-241.2 -111,-241.2 -47.2,0 -88.3,96.7 -111,241.2 -11.4,72.9 -68.8,130.4 -141.8,141.8 -144.5,22.6 -241.5,63.8 -241.5,111 0,47.4 96.9,88.6 241.3,111.1 73.1,11.4 130.6,68.8 142,141.9 22.7,144.6 63.8,241.2 111,241.2 47.2,0 88.3,-96.7 111,-241.3 11.4,-73 68.9,-130.4 142,-141.8 144.3,-22.5 240.9,-63.7 240.9,-111.1"
         style="fill:#ffffff;fill-opacity:1;fill-rule:nonzero;stroke:none"
         id="path338" />
      <path
         d="m 7709.36,18222.6 c 0,-99.3 -80.51,-179.9 -179.83,-179.9 -99.31,0 -179.82,80.6 -179.82,179.9 0,99.3 80.51,179.8 179.82,179.8 99.32,0 179.83,-80.5 179.83,-179.8"
         style="fill:#ffffff;fill-opacity:1;fill-rule:nonzero;stroke:none"
         id="path340" />
      <path
         d="m 32599.8,25163 c -0.1,-51.1 -41.6,-92.4 -92.7,-92.3 -51.1,0.1 -92.4,41.6 -92.3,92.7 0.1,51 41.6,92.4 92.7,92.3 51,-0.1 92.4,-41.6 92.3,-92.7"
         style="fill:#ffffff;fill-opacity:1;fill-rule:nonzero;stroke:none"
         id="path342" />
      <path
         d="m 30538.2,28009.1 c -10.8,-103.1 -103,-177.9 -206.1,-167.2 -103.1,10.8 -177.9,103 -167.2,206.1 10.8,103.1 103,177.9 206.1,167.2 103.1,-10.8 177.9,-103.1 167.2,-206.1"
         style="fill:#ffffff;fill-opacity:1;fill-rule:nonzero;stroke:none"
         id="path344" />
    </g>
  </g>
</svg>
